<svg version="1.1" baseProfile="full" xmlns="http://www.w3.org/2000/svg" width="600" height="600" viewBox="0 0 15290.4 15290.4">
<!--
 This script will plot ray paths generated by TauP using SVG. -->
<defs>
    <style type="text/css"><![CDATA[
        circle {
            vector-effect: non-scaling-stroke;
            stroke: grey;
            fill: none;
        }
        polyline {
            vector-effect: non-scaling-stroke;
            stroke: black;
            fill: none;
        }
        text.label {
            font: bold ;
            font-size: 382px;
            fill: black;
            fill: black;
        }
        g.phasename text {
            font: bold ;
            font-size: 382px;
            fill: black;
        }
    ]]></style>
</defs>
<g transform="translate(7645.2,7645.2)" >
<!-- draw surface and label distances.-->
<!-- tick marks every 30 degrees.-->
  <polyline points="    0.00  -6371.00,     0.00  -6689.55" />
    0.00  -6721.40  <text dominant-baseline="baseline" text-anchor="middle" class="label" x="0.00" y="-6721.40">0</text>
  <polyline points=" 3185.50  -5517.45,  3344.78  -5793.32" />
 3360.70  -5820.91  <text dominant-baseline="baseline" text-anchor="middle" class="label" x="3360.70" y="-5820.91">30</text>
  <polyline points=" 5517.45  -3185.50,  5793.32  -3344.77" />
 5820.91  -3360.70  <text dominant-baseline="middle" text-anchor="start" class="label" x="5820.91" y="-3360.70">60</text>
  <polyline points=" 6371.00      0.00,  6689.55      0.00" />
 6721.40      0.00  <text dominant-baseline="middle" text-anchor="start" class="label" x="6721.40" y="0.00">90</text>
  <polyline points=" 5517.45   3185.50,  5793.32   3344.77" />
 5820.91   3360.70  <text dominant-baseline="middle" text-anchor="start" class="label" x="5820.91" y="3360.70">120</text>
  <polyline points=" 3185.50   5517.45,  3344.78   5793.32" />
 3360.70   5820.91  <text dominant-baseline="hanging" text-anchor="middle" class="label" x="3360.70" y="5820.91">150</text>
  <polyline points="    0.00   6371.00,     0.00   6689.55" />
    0.00   6721.40  <text dominant-baseline="hanging" text-anchor="middle" class="label" x="0.00" y="6721.40">180</text>
  <polyline points="-3185.50   5517.45, -3344.77   5793.32" />
-3360.70   5820.91  <text dominant-baseline="hanging" text-anchor="middle" class="label" x="-3360.70" y="5820.91">210</text>
  <polyline points="-5517.45   3185.50, -5793.32   3344.77" />
-5820.91   3360.70  <text dominant-baseline="middle" text-anchor="end" class="label" x="-5820.91" y="3360.70">240</text>
  <polyline points="-6371.00      0.00, -6689.55      0.00" />
-6721.40      0.00  <text dominant-baseline="middle" text-anchor="end" class="label" x="-6721.40" y="0.00">270</text>
  <polyline points="-5517.45  -3185.50, -5793.32  -3344.78" />
-5820.91  -3360.70  <text dominant-baseline="baseline" text-anchor="end" class="label" x="-5820.91" y="-3360.70">300</text>
  <polyline points="-3185.50  -5517.45, -3344.78  -5793.32" />
-3360.70  -5820.91  <text dominant-baseline="baseline" text-anchor="end" class="label" x="-3360.70" y="-5820.91">330</text>
  <circle cx="0.0" cy="0.0" r="6371.0" />
  <circle cx="0.0" cy="0.0" r="6371.0" />
  <circle cx="0.0" cy="0.0" r="6351.0" />
  <circle cx="0.0" cy="0.0" r="6336.0" />
  <circle cx="0.0" cy="0.0" r="6161.0" />
  <circle cx="0.0" cy="0.0" r="5961.0" />
  <circle cx="0.0" cy="0.0" r="5711.0" />
  <circle cx="0.0" cy="0.0" r="3482.0" />
  <circle cx="0.0" cy="0.0" r="1217.1000000000004" />
<!-- draw paths, coordinates are x,y not degree,radius due to SVG using only cartesian -->
<!-- > PKiKP at  1132.44 seconds at   120.00 degrees for a      0.0 km deep source in the iasp91 model with rayParam    1.959 s/deg.
 -->
<polyline points="
    0.00  -6371.00
    0.00  -6370.99
    0.13  -6369.74
    0.26  -6368.50
    0.51  -6366.00
    1.03  -6361.00
    1.54  -6356.00
    2.05  -6351.00
    2.16  -6350.06
    2.27  -6349.12
    2.49  -6347.25
    2.92  -6343.50
    3.79  -6336.00
    3.98  -6334.67
    4.17  -6333.34
    4.55  -6330.69
    5.31  -6325.38
    6.07  -6320.07
    6.83  -6314.75
    8.35  -6304.12
    9.88  -6293.49
   10.38  -6289.97
   11.78  -6280.22
   13.18  -6270.48
   15.98  -6250.98
   16.24  -6249.17
   16.50  -6247.37
   17.02  -6243.74
   18.07  -6236.47
   20.08  -6222.52
   22.13  -6208.43
   22.31  -6207.19
   22.49  -6205.96
   24.36  -6193.18
   26.25  -6180.29
   29.11  -6160.93
   29.65  -6157.27
   30.20  -6153.60
   31.94  -6141.93
   33.71  -6130.13
   36.61  -6110.89
   36.94  -6108.69
   37.28  -6106.49
   39.08  -6094.65
   40.00  -6088.68
   40.92  -6082.69
   42.59  -6071.81
   44.29  -6060.84
   44.46  -6059.76
   44.62  -6058.68
   46.50  -6046.63
   47.45  -6040.56
   48.41  -6034.45
   50.26  -6022.67
   52.14  -6010.77
   52.20  -6010.39
   52.26  -6010.01
   54.22  -5997.72
   55.21  -5991.53
   56.21  -5985.31
   58.18  -5973.06
   60.18  -5960.70
   60.79  -5957.08
   61.40  -5953.45
   62.63  -5946.16
   65.00  -5932.26
   67.40  -5918.21
   68.71  -5910.60
   72.29  -5889.88
   77.29  -5861.19
   77.41  -5860.49
   82.42  -5832.10
   86.29  -5810.36
   87.68  -5802.60
   93.08  -5772.65
   95.34  -5760.21
   98.62  -5742.25
  104.32  -5711.39
  104.57  -5710.04
  104.99  -5707.93
  105.40  -5705.82
  106.24  -5701.59
  107.93  -5693.10
  111.23  -5676.54
  114.58  -5659.84
  115.19  -5656.76
  115.81  -5653.68
  119.83  -5633.76
  123.91  -5613.65
  124.73  -5609.61
  129.32  -5587.10
  133.97  -5564.43
  134.43  -5562.15
  134.90  -5559.86
  139.18  -5539.09
  143.50  -5518.18
  145.18  -5510.09
  153.33  -5470.90
  155.55  -5460.28
  163.45  -5422.61
  163.61  -5421.86
  163.77  -5421.10
  164.09  -5419.58
  164.73  -5416.54
  165.38  -5413.50
  166.02  -5410.45
  167.32  -5404.26
  168.64  -5398.06
  169.95  -5391.84
  171.27  -5385.61
  173.92  -5373.13
  176.58  -5360.59
  179.23  -5348.19
  181.88  -5335.73
  184.56  -5323.24
  187.24  -5310.70
  192.59  -5285.82
  198.00  -5260.78
  203.39  -5235.88
  208.85  -5210.82
  214.29  -5185.90
  219.79  -5160.82
  225.86  -5133.26
  226.17  -5131.86
  226.48  -5130.46
  227.10  -5127.65
  228.34  -5122.04
  230.83  -5110.79
  236.37  -5085.83
  241.96  -5060.72
  243.94  -5051.86
  253.19  -5010.61
  262.29  -4970.24
  264.50  -4960.45
  275.91  -4910.25
  280.88  -4888.50
  287.41  -4860.01
  299.01  -4809.71
  299.70  -4806.74
  310.70  -4759.37
  318.73  -4724.99
  322.48  -4708.97
  334.36  -4658.52
  337.95  -4643.36
  346.34  -4608.00
  357.32  -4561.95
  358.41  -4557.43
  370.57  -4506.79
  376.85  -4480.81
  380.33  -4466.41
  382.84  -4456.08
  395.21  -4405.31
  396.51  -4399.98
  407.67  -4354.46
  416.29  -4319.49
  416.32  -4319.41
  420.24  -4303.53
  432.92  -4252.52
  436.18  -4239.47
  445.70  -4201.43
  454.00  -4168.47
  456.16  -4159.87
  458.60  -4150.24
  471.60  -4098.96
  476.24  -4080.77
  484.73  -4047.58
  493.39  -4013.84
  496.41  -4002.14
  497.97  -3996.09
  511.33  -3944.50
  516.66  -3924.02
  524.82  -3892.78
  534.54  -3855.76
  536.99  -3846.43
  538.44  -3840.94
  552.20  -3788.97
  557.41  -3769.36
  566.09  -3736.87
  577.58  -3694.09
  577.94  -3692.76
  580.13  -3684.61
  594.33  -3632.20
  598.56  -3616.65
  608.68  -3579.62
  611.98  -3567.57
  615.29  -3555.51
  621.92  -3531.36
  623.20  -3526.69
  626.02  -3516.42
  637.78  -3473.60
  647.65  -3437.70
  652.44  -3420.33
  652.50  -3419.43
  652.57  -3418.53
  652.70  -3416.73
  652.96  -3413.12
  653.49  -3405.89
  654.67  -3389.98
  655.88  -3373.95
  656.30  -3368.33
  658.32  -3341.93
  660.33  -3316.24
  660.82  -3309.95
  663.39  -3277.88
  664.51  -3264.05
  666.01  -3245.79
  668.70  -3213.67
  668.86  -3211.77
  671.46  -3181.37
  673.37  -3159.38
  674.28  -3149.04
  677.16  -3116.60
  678.04  -3106.88
  680.12  -3084.01
  682.88  -3054.27
  683.15  -3051.32
  686.26  -3018.41
  687.88  -3001.54
  688.79  -2992.11
  689.44  -2985.35
  692.70  -2952.15
  693.04  -2948.67
  696.04  -2918.68
  698.38  -2895.66
  698.38  -2895.61
  699.46  -2885.06
  702.97  -2851.17
  703.88  -2842.51
  706.57  -2817.03
  708.93  -2794.96
  709.55  -2789.19
  710.25  -2782.68
  714.03  -2748.02
  715.39  -2735.71
  717.91  -2713.06
  720.50  -2690.02
  721.41  -2682.03
  721.88  -2677.87
  725.96  -2642.31
  727.60  -2628.17
  730.14  -2606.43
  733.19  -2580.62
  733.96  -2574.11
  734.42  -2570.25
  738.82  -2533.65
  740.51  -2519.82
  743.34  -2496.72
  747.11  -2466.24
  747.23  -2465.28
  747.96  -2459.44
  752.72  -2421.71
  754.14  -2410.49
  757.59  -2383.59
  758.50  -2376.57
  759.41  -2369.54
  761.24  -2355.42
  761.60  -2352.67
  762.39  -2346.62
  765.72  -2321.33
  768.54  -2300.05
  769.92  -2289.65
  770.11  -2288.24
  770.30  -2286.84
  770.68  -2284.02
  771.05  -2281.20
  771.43  -2278.38
  772.19  -2272.73
  772.95  -2267.08
  774.48  -2255.73
  776.03  -2244.34
  777.59  -2232.87
  779.16  -2221.36
  781.43  -2204.86
  783.72  -2188.27
  787.63  -2160.17
  791.62  -2131.82
  797.58  -2089.93
  799.73  -2074.94
  808.07  -2017.59
  816.63  -1959.72
  817.85  -1951.59
  825.44  -1901.28
  834.50  -1842.20
  840.23  -1805.37
  843.83  -1782.42
  848.87  -1752.10
  853.43  -1721.84
  858.65  -1691.06
  863.35  -1660.35
  865.04  -1649.97
  873.59  -1597.86
  879.19  -1565.98
  884.18  -1534.19
  888.69  -1508.65
  892.79  -1483.16
  895.16  -1469.18
  901.24  -1435.84
  906.59  -1402.59
  912.94  -1368.31
  918.50  -1334.15
  924.33  -1300.97
  930.98  -1263.47
  935.81  -1238.93
  940.19  -1214.46
  944.13  -1190.07
  949.29  -1164.39
  953.94  -1138.78
  958.08  -1113.26
  961.29  -1095.74
  965.57  -1074.45
  969.49  -1053.22
  973.03  -1032.05
  979.17  -1002.91
  984.59   -973.88
  989.29   -944.97
  994.56   -921.01
  999.33   -897.10
 1003.59   -873.28
 1007.36   -849.54
 1007.80   -847.24
 1012.69   -825.90
 1017.18   -804.61
 1021.25   -783.37
 1024.92   -762.19
 1028.19   -741.08
 1033.63   -718.89
 1038.60   -696.73
 1043.13   -674.61
 1047.21   -652.53
 1050.85   -630.51
 1054.04   -608.55
 1071.46   -594.81
 1088.71   -580.65
 1105.79   -566.08
 1122.69   -551.09
 1139.39   -535.70
 1155.89   -519.90
 1172.54   -506.51
 1189.05   -492.74
 1205.41   -478.60
 1221.60   -464.07
 1237.63   -449.16
 1239.40   -447.63
 1258.08   -432.50
 1276.58   -416.89
 1294.89   -400.81
 1313.02   -384.27
 1335.70   -365.74
 1358.13   -346.53
 1380.30   -326.65
 1396.86   -312.99
 1413.29   -298.98
 1429.58   -284.63
 1443.15   -273.09
 1463.18   -256.75
 1483.03   -239.92
 1502.69   -222.60
 1521.85   -207.00
 1540.85   -190.97
 1559.69   -174.52
 1588.84   -150.01
 1614.66   -128.37
 1641.47   -106.48
 1667.97    -83.83
 1694.09    -62.58
 1719.93    -40.65
 1730.85    -31.60
 1750.87    -15.30
 1770.74      1.37
 1795.78     21.59
 1820.58     42.38
 1861.43     75.84
 1869.58     82.49
 1893.83    101.92
 1917.87    121.82
 1941.80    140.91
 1965.53    160.43
 1983.61    175.02
 2012.64    198.40
 2059.28    235.79
 2099.05    267.52
 2105.48    272.63
 2151.31    308.98
 2196.81    344.88
 2208.72    354.24
 2242.02    380.35
 2264.57    397.97
 2286.96    415.41
 2300.18    425.69
 2313.34    435.91
 2322.52    443.03
 2331.67    450.11
 2340.76    457.14
 2349.82    464.14
 2354.34    467.63
 2358.85    471.11
 2361.11    472.85
 2363.36    474.59
 2365.61    476.32
 2366.73    477.19
 2367.86    478.05
 2376.17    484.45
 2393.19    497.54
 2413.43    513.06
 2418.28    516.77
 2420.48    518.45
 2431.79    527.10
 2437.42    531.41
 2443.05    535.70
 2464.62    552.14
 2473.62    558.98
 2503.92    581.96
 2508.61    585.52
 2509.38    586.10
 2533.89    604.61
 2552.48    618.61
 2563.62    626.99
 2593.11    649.10
 2596.22    651.42
 2601.47    655.35
 2622.31    670.90
 2639.86    683.97
 2651.28    692.46
 2680.04    713.77
 2683.41    716.26
 2689.88    721.04
 2708.54    734.80
 2726.89    748.31
 2736.87    755.64
 2765.00    776.25
 2770.29    780.11
 2774.97    783.53
 2792.91    796.61
 2813.62    811.68
 2820.67    816.80
 2848.27    836.78
 2856.86    842.99
 2856.91    843.02
 2875.67    856.55
 2900.14    874.14
 2902.99    876.18
 2930.11    895.60
 2935.64    899.55
 2943.35    905.05
 2957.15    914.88
 2984.10    934.03
 2986.52    935.75
 3010.89    953.00
 3029.66    966.24
 3037.64    971.86
 3064.29    990.58
 3072.79    996.54
 3090.88   1009.19
 3115.91   1026.64
 3117.47   1027.72
 3143.94   1046.11
 3159.01   1056.54
 3170.42   1064.43
 3196.91   1082.69
 3202.11   1086.26
 3223.36   1100.84
 3245.21   1115.79
 3249.86   1118.97
 3263.14   1128.02
 3276.33   1137.00
 3282.33   1141.08
 3285.32   1143.11
 3286.82   1144.12
 3287.56   1144.63
 3288.31   1145.14
 3300.97   1157.97
 3327.12   1184.47
 3358.32   1216.07
 3365.80   1223.64
 3369.20   1227.08
 3386.81   1244.90
 3395.60   1253.80
 3404.38   1262.68
 3431.39   1289.96
 3442.74   1301.40
 3481.03   1339.89
 3486.99   1345.87
 3487.97   1346.85
 3519.27   1378.18
 3543.07   1401.95
 3557.45   1416.27
 3595.57   1454.17
 3599.61   1458.17
 3606.46   1464.96
 3633.66   1491.88
 3656.63   1514.57
 3671.70   1529.42
 3709.70   1566.79
 3714.16   1571.17
 3722.78   1579.63
 3747.67   1604.00
 3772.17   1627.95
 3785.60   1641.06
 3823.51   1677.96
 3830.64   1684.89
 3837.00   1691.06
 3861.39   1714.72
 3889.58   1742.00
 3899.25   1751.34
 3937.09   1787.82
 3948.87   1799.16
 3948.94   1799.23
 3974.91   1824.17
 4008.75   1856.60
 4012.71   1860.40
 4050.50   1896.49
 4058.19   1903.83
 4068.92   1914.04
 4088.28   1932.47
 4126.05   1968.33
 4129.43   1971.53
 4163.82   2004.07
 4190.24   2029.01
 4201.57   2039.69
 4239.33   2075.21
 4251.32   2086.46
 4277.08   2110.61
 4312.61   2143.82
 4314.84   2145.91
 4352.60   2181.10
 4374.00   2201.00
 4390.36   2216.18
 4428.13   2251.16
 4435.50   2257.97
 4465.91   2286.04
 4497.01   2314.67
 4503.69   2320.81
 4522.64   2338.22
 4541.49   2355.49
 4549.99   2363.27
 4554.23   2367.15
 4556.35   2369.09
 4557.40   2370.06
 4558.46   2371.02
 4579.30   2390.06
 4598.27   2407.37
 4617.12   2424.54
 4636.10   2441.79
 4654.96   2458.92
 4673.95   2476.12
 4692.82   2493.19
 4702.34   2501.79
 4711.82   2510.35
 4721.28   2518.88
 4730.70   2527.37
 4740.22   2535.95
 4749.71   2544.48
 4754.45   2548.74
 4759.17   2552.99
 4763.89   2557.22
 4768.60   2561.45
 4770.91   2563.53
 4773.23   2565.61
 4775.54   2567.68
 4776.69   2568.72
 4777.27   2569.23
 4777.85   2569.75
 4806.52   2595.43
 4814.60   2602.66
 4844.46   2629.32
 4850.63   2634.82
 4866.58   2649.01
 4882.43   2663.10
 4884.18   2664.65
 4885.92   2666.20
 4903.23   2681.56
 4920.43   2696.79
 4923.52   2699.52
 4938.90   2713.11
 4954.14   2726.54
 4956.50   2728.62
 4958.85   2730.70
 4971.64   2741.94
 4984.33   2753.08
 4990.84   2758.78
 4994.09   2761.63
 4995.71   2763.05
 4997.33   2764.46
 4998.37   2765.36
 5022.25   2785.72
 5036.16   2797.54
 5045.80   2805.72
 5069.04   2825.37
 5075.06   2830.45
 5091.95   2844.67
 5114.04   2863.20
 5114.58   2863.66
 5136.93   2882.34
 5153.09   2895.80
 5159.02   2900.74
 5169.99   2909.84
 5180.85   2918.84
 5186.54   2923.55
 5189.37   2925.90
 5192.20   2928.23
 5201.91   2936.15
 5211.53   2943.98
 5216.42   2947.95
 5221.29   2951.90
 5230.95   2959.74
 5231.25   2959.99
 5231.55   2960.23
 5240.92   2967.81
 5250.19   2975.31
 5255.00   2979.19
 5259.78   2983.04
 5269.28   2990.69
 5270.13   2991.38
 5270.98   2992.06
 5279.64   2999.02
 5288.22   3005.91
 5292.95   3009.70
 5297.66   3013.48
 5307.01   3020.96
 5308.75   3022.35
 5310.49   3023.74
 5325.70   3035.88
 5335.03   3043.30
 5344.27   3050.65
 5347.18   3052.96
 5350.08   3055.26
 5365.41   3067.41
 5375.63   3075.49
 5385.76   3083.50
 5386.74   3084.27
 5387.72   3085.05
 5398.90   3093.87
 5409.98   3102.59
 5415.75   3107.13
 5418.63   3109.40
 5420.06   3110.53
 5421.50   3111.65
 5436.98   3123.83
 5444.73   3129.91
 5452.46   3135.99
 5455.26   3138.19
 5463.71   3144.83
 5472.15   3151.46
 5476.37   3154.78
 5480.59   3158.09
 5484.81   3161.41
 5486.92   3163.06
 5487.97   3163.89
 5489.03   3164.72
 5495.09   3169.22
 5498.12   3171.47
 5499.64   3172.60
 5500.40   3173.16
 5501.15   3173.72
 5505.23   3176.66
 5509.30   3179.61
 5513.37   3182.55
 5515.41   3184.02
 5516.43   3184.76
 5517.44   3185.50
 5517.45   3185.50
" />
<!-- > PP at  1216.56 seconds at   120.00 degrees for a      0.0 km deep source in the iasp91 model with rayParam    6.876 s/deg.
 -->
<polyline points="
    0.00  -6371.00
    0.00  -6370.99
    0.48  -6369.74
    0.96  -6368.50
    1.92  -6366.00
    3.84  -6361.00
    5.76  -6356.00
    7.69  -6351.00
    8.10  -6350.06
    8.51  -6349.12
    9.33  -6347.24
   10.98  -6343.49
   14.28  -6335.98
   15.04  -6334.65
   15.80  -6333.33
   17.33  -6330.67
   20.39  -6325.35
   23.44  -6320.03
   26.50  -6314.70
   32.62  -6304.05
   38.75  -6293.38
   40.78  -6289.84
   46.40  -6280.06
   52.03  -6270.28
   63.30  -6250.68
   64.34  -6248.86
   65.39  -6247.05
   67.49  -6243.40
   71.72  -6236.09
   79.88  -6222.04
   88.19  -6207.84
   88.91  -6206.60
   89.65  -6205.35
   97.24  -6192.46
  104.95  -6179.45
  116.64  -6159.90
  118.86  -6156.20
  121.09  -6152.48
  128.24  -6140.67
  135.52  -6128.73
  147.53  -6109.22
  148.91  -6106.99
  150.30  -6104.75
  157.79  -6092.73
  161.59  -6086.67
  165.42  -6080.58
  172.42  -6069.51
  179.53  -6058.34
  180.24  -6057.24
  180.94  -6056.14
  188.83  -6043.86
  192.83  -6037.66
  196.87  -6031.43
  204.72  -6019.40
  212.71  -6007.24
  212.97  -6006.84
  213.23  -6006.45
  221.57  -5993.87
  225.80  -5987.53
  230.06  -5981.15
  238.52  -5968.58
  247.14  -5955.87
  249.84  -5952.15
  252.55  -5948.41
  258.01  -5940.89
  268.51  -5926.54
  279.23  -5912.01
  285.08  -5904.12
  301.18  -5882.62
  323.90  -5852.74
  324.46  -5852.01
  347.44  -5822.32
  365.38  -5799.50
  371.86  -5791.33
  397.24  -5759.72
  407.97  -5746.54
  423.66  -5727.45
  451.17  -5694.50
  452.39  -5693.05
  454.56  -5690.77
  456.74  -5688.49
  461.11  -5683.90
  469.93  -5674.69
  487.30  -5656.68
  505.06  -5638.42
  508.36  -5635.05
  511.68  -5631.67
  533.32  -5609.74
  555.55  -5587.46
  560.06  -5582.98
  585.47  -5557.85
  611.49  -5532.35
  614.13  -5529.77
  616.78  -5527.19
  641.08  -5503.63
  665.93  -5479.73
  675.65  -5470.43
  723.65  -5424.99
  736.91  -5412.57
  784.97  -5367.99
  785.96  -5367.08
  786.94  -5366.18
  788.91  -5364.36
  792.87  -5360.73
  796.84  -5357.08
  800.83  -5353.43
  808.97  -5345.99
  817.17  -5338.51
  825.43  -5330.99
  833.76  -5323.44
  850.61  -5308.22
  867.72  -5292.84
  884.87  -5277.52
  902.29  -5262.04
  919.99  -5246.39
  938.00  -5230.56
  974.43  -5198.80
 1012.17  -5166.28
 1050.79  -5133.39
 1090.90  -5099.62
 1132.11  -5065.36
 1175.08  -5030.07
 1224.22  -4990.25
 1226.77  -4988.20
 1229.33  -4986.14
 1234.47  -4982.01
 1244.84  -4973.71
 1265.93  -4956.90
 1314.24  -4918.77
 1365.24  -4879.09
 1383.88  -4864.73
 1430.12  -4830.10
 1475.78  -4795.03
 1526.22  -4758.30
 1576.00  -4721.05
 1602.28  -4701.99
 1653.54  -4666.71
 1704.17  -4630.88
 1754.18  -4594.51
 1793.72  -4567.71
 1832.90  -4540.57
 1895.39  -4499.62
 1957.06  -4457.83
 2024.16  -4420.77
 2090.59  -4382.71
 2156.33  -4343.65
 2221.35  -4303.61
 2285.65  -4262.60
 2349.20  -4220.63
 2412.01  -4177.72
 2480.57  -4144.78
 2548.70  -4110.72
 2616.36  -4075.55
 2683.55  -4039.26
 2750.24  -4001.86
 2816.42  -3963.36
 2882.07  -3923.77
 2949.10  -3891.26
 3015.80  -3857.62
 3058.90  -3837.26
 3101.88  -3816.42
 3158.38  -3791.30
 3214.73  -3765.36
 3270.91  -3738.61
 3300.55  -3725.38
 3357.70  -3700.90
 3414.73  -3675.58
 3467.93  -3653.57
 3521.04  -3630.84
 3542.80  -3621.88
 3602.67  -3597.55
 3659.84  -3574.78
 3684.94  -3564.92
 3697.32  -3560.09
 3703.46  -3557.70
 3706.53  -3556.51
 3709.58  -3555.33
 3768.63  -3532.68
 3820.67  -3513.11
 3870.96  -3494.55
 3920.25  -3476.70
 3968.05  -3459.70
 4015.08  -3443.28
 4060.80  -3427.61
 4083.51  -3419.93
 4105.92  -3412.42
 4128.04  -3405.07
 4149.88  -3397.89
 4171.75  -3390.76
 4193.36  -3383.78
 4204.06  -3380.34
 4214.70  -3376.94
 4225.28  -3373.58
 4235.80  -3370.25
 4240.95  -3368.62
 4246.09  -3367.01
 4251.22  -3365.40
 4253.78  -3364.60
 4255.05  -3364.20
 4256.33  -3363.80
 4318.96  -3344.47
 4336.36  -3339.19
 4399.71  -3320.35
 4412.63  -3316.57
 4445.75  -3307.00
 4478.30  -3297.74
 4481.86  -3296.73
 4485.41  -3295.74
 4520.50  -3285.95
 4554.97  -3276.52
 4561.11  -3274.85
 4591.52  -3266.73
 4621.33  -3258.96
 4625.92  -3257.78
 4630.49  -3256.61
 4655.18  -3250.35
 4679.47  -3244.31
 4691.85  -3241.28
 4698.01  -3239.79
 4701.07  -3239.05
 4704.14  -3238.31
 4706.00  -3237.97
 4748.29  -3230.62
 4772.66  -3226.58
 4789.44  -3223.88
 4829.51  -3217.70
 4839.83  -3216.17
 4868.56  -3212.05
 4905.76  -3206.99
 4906.68  -3206.87
 4943.91  -3202.14
 4970.58  -3198.95
 4980.34  -3197.82
 4998.28  -3195.80
 5015.96  -3193.89
 5025.20  -3192.91
 5029.79  -3192.44
 5034.37  -3191.97
 5049.69  -3190.85
 5064.80  -3189.81
 5072.45  -3189.30
 5080.06  -3188.81
 5095.12  -3187.89
 5095.59  -3187.86
 5096.06  -3187.83
 5110.60  -3186.99
 5124.94  -3186.21
 5132.36  -3185.83
 5139.72  -3185.46
 5154.30  -3184.77
 5155.61  -3184.71
 5156.91  -3184.65
 5170.15  -3184.07
 5183.22  -3183.54
 5190.42  -3183.27
 5197.57  -3183.01
 5211.72  -3182.53
 5214.35  -3182.45
 5216.98  -3182.37
 5239.87  -3181.73
 5253.86  -3181.39
 5267.66  -3181.11
 5272.00  -3181.03
 5276.31  -3180.95
 5299.09  -3180.62
 5314.21  -3180.44
 5329.17  -3180.31
 5330.62  -3180.30
 5332.06  -3180.29
 5348.50  -3180.19
 5364.75  -3180.15
 5373.20  -3180.15
 5377.41  -3180.15
 5379.51  -3180.15
 5381.60  -3180.15
 5404.21  -3180.19
 5415.50  -3180.21
 5426.78  -3180.24
 5430.85  -3180.24
 5443.15  -3180.27
 5455.44  -3180.30
 5461.58  -3180.31
 5467.72  -3180.32
 5473.85  -3180.34
 5476.92  -3180.35
 5478.45  -3180.35
 5479.99  -3180.35
 5488.14  -3181.25
 5492.21  -3181.70
 5494.25  -3181.93
 5495.26  -3182.04
 5496.28  -3182.15
 5501.57  -3182.99
 5506.86  -3183.82
 5512.15  -3184.66
 5514.80  -3185.08
 5516.12  -3185.29
 5517.44  -3185.50
 5517.45  -3185.50
 5517.45  -3185.49
 5516.60  -3184.45
 5515.76  -3183.41
 5514.08  -3181.33
 5510.71  -3177.17
 5507.34  -3173.00
 5503.97  -3168.84
 5503.36  -3168.01
 5502.76  -3167.19
 5501.54  -3165.53
 5499.12  -3162.23
 5494.26  -3155.62
 5493.49  -3154.30
 5492.72  -3152.97
 5491.19  -3150.32
 5488.11  -3145.02
 5485.03  -3139.71
 5481.94  -3134.40
 5475.78  -3123.77
 5469.60  -3113.13
 5467.56  -3109.60
 5461.90  -3099.84
 5456.24  -3090.08
 5444.90  -3070.52
 5443.85  -3068.71
 5442.80  -3066.89
 5440.69  -3063.25
 5436.47  -3055.93
 5428.39  -3041.84
 5420.24  -3027.55
 5419.53  -3026.29
 5418.82  -3025.04
 5411.45  -3012.02
 5404.04  -2998.83
 5392.95  -2978.93
 5390.85  -2975.16
 5388.76  -2971.37
 5382.10  -2959.27
 5375.40  -2946.99
 5364.51  -2926.84
 5363.26  -2924.53
 5362.02  -2922.21
 5355.36  -2909.71
 5352.01  -2903.39
 5348.65  -2897.02
 5342.56  -2885.44
 5336.45  -2873.69
 5335.84  -2872.53
 5335.24  -2871.37
 5328.55  -2858.39
 5325.19  -2851.83
 5321.81  -2845.22
 5315.32  -2832.40
 5308.78  -2819.40
 5308.57  -2818.98
 5308.36  -2818.56
 5301.63  -2805.05
 5298.25  -2798.22
 5294.86  -2791.33
 5288.21  -2777.72
 5281.51  -2763.90
 5279.63  -2759.70
 5277.75  -2755.49
 5273.97  -2747.00
 5266.79  -2730.73
 5259.56  -2714.18
 5255.66  -2705.17
 5245.09  -2680.47
 5230.57  -2645.87
 5230.22  -2645.01
 5216.00  -2610.27
 5205.21  -2583.32
 5201.37  -2573.62
 5186.69  -2535.83
 5180.63  -2519.95
 5171.95  -2496.83
 5157.17  -2456.52
 5156.53  -2454.74
 5155.64  -2451.72
 5154.74  -2448.69
 5152.96  -2442.61
 5149.40  -2430.37
 5142.48  -2406.32
 5135.55  -2381.81
 5134.28  -2377.27
 5133.01  -2372.70
 5124.84  -2343.00
 5116.66  -2312.60
 5115.03  -2306.46
 5105.98  -2271.89
 5096.90  -2236.61
 5095.99  -2233.03
 5095.08  -2229.45
 5086.82  -2196.62
 5078.55  -2163.15
 5075.36  -2150.08
 5060.01  -2085.79
 5055.88  -2068.09
 5041.30  -2004.19
 5041.01  -2002.88
 5040.72  -2001.57
 5040.13  -1998.96
 5038.96  -1993.71
 5037.79  -1988.45
 5036.62  -1983.18
 5034.25  -1972.40
 5031.87  -1961.56
 5029.49  -1950.65
 5027.12  -1939.66
 5022.36  -1917.46
 5017.60  -1894.95
 5012.90  -1872.44
 5008.20  -1849.61
 5003.50  -1826.45
 4998.80  -1802.95
 4989.51  -1755.51
 4980.22  -1706.58
 4971.04  -1656.68
 4961.85  -1605.06
 4952.78  -1552.24
 4943.71  -1497.39
 4933.80  -1434.92
 4933.29  -1431.68
 4932.79  -1428.44
 4931.79  -1421.92
 4929.78  -1408.79
 4925.77  -1382.12
 4916.90  -1321.22
 4908.04  -1257.21
 4904.92  -1233.89
 4898.05  -1176.52
 4890.51  -1119.45
 4883.92  -1057.40
 4876.55   -995.66
 4873.19   -963.38
 4868.26   -901.35
 4862.55   -839.58
 4856.06   -778.09
 4852.61   -730.45
 4848.70   -682.94
 4844.48   -608.35
 4839.12   -534.05
 4840.58   -457.40
 4840.83   -380.84
 4839.87   -304.39
 4837.71   -228.06
 4834.34   -151.87
 4829.78    -75.84
 4824.02      0.00
 4829.78     75.85
 4834.34    151.88
 4837.71    228.07
 4839.87    304.40
 4840.83    380.85
 4840.58    457.41
 4839.12    534.06
 4844.48    608.36
 4848.70    682.95
 4852.61    730.46
 4856.06    778.10
 4862.55    839.59
 4868.26    901.36
 4873.19    963.39
 4876.55    995.67
 4883.92   1057.41
 4890.51   1119.46
 4898.05   1176.53
 4904.92   1233.90
 4908.04   1257.22
 4916.90   1321.23
 4925.77   1382.13
 4929.78   1408.80
 4931.79   1421.93
 4932.79   1428.45
 4933.29   1431.69
 4933.79   1434.93
 4943.70   1497.40
 4952.78   1552.25
 4961.85   1605.07
 4971.03   1656.69
 4980.21   1706.59
 4989.51   1755.52
 4998.79   1802.96
 5003.50   1826.46
 5008.20   1849.62
 5012.90   1872.45
 5017.59   1894.96
 5022.35   1917.47
 5027.11   1939.67
 5029.49   1950.66
 5031.87   1961.57
 5034.24   1972.41
 5036.62   1983.19
 5037.79   1988.46
 5038.96   1993.72
 5040.13   1998.97
 5040.71   2001.58
 5041.00   2002.89
 5041.30   2004.20
 5055.87   2068.10
 5060.00   2085.80
 5075.36   2150.09
 5078.55   2163.16
 5086.82   2196.63
 5095.08   2229.46
 5095.99   2233.04
 5096.90   2236.62
 5105.97   2271.90
 5115.03   2306.47
 5116.66   2312.61
 5124.83   2343.01
 5133.00   2372.71
 5134.28   2377.28
 5135.55   2381.82
 5142.47   2406.33
 5149.39   2430.38
 5152.96   2442.62
 5154.74   2448.70
 5155.63   2451.73
 5156.52   2454.75
 5157.16   2456.53
 5171.94   2496.84
 5180.63   2519.96
 5186.68   2535.84
 5201.37   2573.63
 5205.20   2583.33
 5215.99   2610.28
 5230.22   2645.03
 5230.57   2645.88
 5245.09   2680.49
 5255.66   2705.18
 5259.56   2714.19
 5266.78   2730.74
 5273.97   2747.01
 5277.74   2755.50
 5279.63   2759.71
 5281.51   2763.91
 5288.20   2777.73
 5294.85   2791.34
 5298.24   2798.23
 5301.62   2805.06
 5308.35   2818.57
 5308.56   2818.99
 5308.77   2819.41
 5315.31   2832.42
 5321.81   2845.23
 5325.18   2851.84
 5328.54   2858.40
 5335.24   2871.38
 5335.84   2872.54
 5336.44   2873.70
 5342.56   2885.45
 5348.64   2897.04
 5352.00   2903.40
 5355.35   2909.72
 5362.02   2922.22
 5363.26   2924.54
 5364.50   2926.85
 5375.39   2947.01
 5382.09   2959.28
 5388.75   2971.38
 5390.85   2975.17
 5392.94   2978.95
 5404.04   2998.84
 5411.45   3012.03
 5418.81   3025.05
 5419.52   3026.30
 5420.24   3027.56
 5428.38   3041.85
 5436.47   3055.94
 5440.69   3063.26
 5442.79   3066.90
 5443.84   3068.72
 5444.89   3070.53
 5456.23   3090.09
 5461.89   3099.85
 5467.55   3109.61
 5469.60   3113.14
 5475.77   3123.78
 5481.94   3134.41
 5485.02   3139.72
 5488.10   3145.03
 5491.18   3150.33
 5492.72   3152.98
 5493.49   3154.31
 5494.26   3155.63
 5499.11   3162.24
 5501.54   3165.55
 5502.75   3167.20
 5503.36   3168.02
 5503.96   3168.85
 5507.33   3173.01
 5510.70   3177.18
 5514.07   3181.34
 5515.76   3183.42
 5516.60   3184.46
 5517.44   3185.50
 5517.44   3185.51
" />
<!-- > PPP at  1368.88 seconds at   120.00 degrees for a      0.0 km deep source in the iasp91 model with rayParam    8.304 s/deg.
 -->
<polyline points="
    0.00  -6371.00
    0.00  -6370.99
    0.60  -6369.74
    1.20  -6368.50
    2.40  -6366.00
    4.81  -6361.00
    7.21  -6355.99
    9.61  -6350.99
   10.14  -6350.05
   10.66  -6349.12
   11.70  -6347.24
   13.78  -6343.49
   17.96  -6335.97
   18.96  -6334.64
   19.96  -6333.31
   21.96  -6330.65
   25.97  -6325.33
   29.99  -6320.00
   34.00  -6314.67
   42.05  -6303.99
   50.10  -6293.30
   52.77  -6289.75
   60.16  -6279.95
   67.57  -6270.13
   82.40  -6250.46
   83.78  -6248.63
   85.16  -6246.81
   87.93  -6243.15
   93.51  -6235.80
  104.29  -6221.68
  115.28  -6207.40
  116.24  -6206.15
  117.21  -6204.89
  127.28  -6191.92
  137.53  -6178.81
  153.10  -6159.10
  156.06  -6155.37
  159.05  -6151.62
  168.61  -6139.70
  178.37  -6127.63
  194.51  -6107.90
  196.37  -6105.65
  198.24  -6103.38
  208.36  -6091.21
  213.50  -6085.07
  218.69  -6078.89
  228.19  -6067.67
  237.87  -6056.33
  238.83  -6055.21
  239.79  -6054.10
  250.56  -6041.61
  256.04  -6035.31
  261.57  -6028.98
  272.35  -6016.72
  283.37  -6004.32
  283.73  -6003.92
  284.08  -6003.52
  295.61  -5990.68
  301.47  -5984.19
  307.40  -5977.67
  319.18  -5964.81
  331.23  -5951.79
  335.09  -5947.96
  338.97  -5944.11
  346.82  -5936.37
  361.97  -5921.56
  377.51  -5906.55
  386.03  -5898.38
  409.62  -5876.07
  443.25  -5844.92
  444.08  -5844.15
  478.58  -5813.01
  505.87  -5788.94
  515.81  -5780.29
  555.18  -5746.65
  572.05  -5732.53
  596.96  -5711.99
  641.48  -5676.21
  643.49  -5674.63
  647.54  -5672.05
  651.62  -5669.47
  659.85  -5664.27
  676.59  -5653.78
  710.16  -5633.04
  745.38  -5611.71
  752.03  -5607.73
  758.75  -5603.73
  803.55  -5577.45
  851.53  -5550.07
  861.53  -5544.46
  919.50  -5512.44
  982.07  -5478.72
  988.63  -5475.23
  995.25  -5471.72
 1058.18  -5438.86
 1127.33  -5403.71
 1156.04  -5389.41
 1237.24  -5351.36
 1317.52  -5312.10
 1370.91  -5287.68
 1443.75  -5258.55
 1516.04  -5228.43
 1587.76  -5197.31
 1658.91  -5165.22
 1669.42  -5161.04
 1680.59  -5156.62
 1705.48  -5146.85
 1777.04  -5119.39
 1853.05  -5091.22
 1929.39  -5063.94
 2001.86  -5038.98
 2027.20  -5030.46
 2038.60  -5026.67
 2049.34  -5023.11
 2124.47  -5001.97
 2199.42  -4979.70
 2274.16  -4956.31
 2348.68  -4931.80
 2405.27  -4916.19
 2492.01  -4894.66
 2578.66  -4871.62
 2609.85  -4864.11
 2685.42  -4846.59
 2754.75  -4831.32
 2762.07  -4829.75
 2769.34  -4828.20
 2838.95  -4813.82
 2903.94  -4801.09
 2915.21  -4798.95
 2969.56  -4789.09
 3020.77  -4780.42
 3028.49  -4779.17
 3036.15  -4777.94
 3076.83  -4771.64
 3115.88  -4765.95
 3135.45  -4763.23
 3145.09  -4761.92
 3149.88  -4761.28
 3154.65  -4760.64
 3157.19  -4760.57
 3214.30  -4759.36
 3246.59  -4759.08
 3268.58  -4759.05
 3320.37  -4759.51
 3333.54  -4759.75
 3369.92  -4760.65
 3416.36  -4762.33
 3417.49  -4762.38
 3463.28  -4764.62
 3495.69  -4766.56
 3507.47  -4767.33
 3529.02  -4768.85
 3550.15  -4770.45
 3561.13  -4771.34
 3566.58  -4771.79
 3572.00  -4772.24
 3589.61  -4774.47
 3606.89  -4776.75
 3615.63  -4777.94
 3624.28  -4779.14
 3641.36  -4781.57
 3641.90  -4781.64
 3642.43  -4781.72
 3658.84  -4784.14
 3674.98  -4786.60
 3683.29  -4787.89
 3691.53  -4789.20
 3707.81  -4791.84
 3709.26  -4792.08
 3710.71  -4792.32
 3725.42  -4794.78
 3739.91  -4797.28
 3747.86  -4798.67
 3755.74  -4800.07
 3771.32  -4802.89
 3774.20  -4803.42
 3777.08  -4803.95
 3802.13  -4808.69
 3817.36  -4811.66
 3832.35  -4814.65
 3837.04  -4815.60
 3841.71  -4816.55
 3866.31  -4821.65
 3882.58  -4825.10
 3898.64  -4828.57
 3900.19  -4828.90
 3901.73  -4829.24
 3919.33  -4833.11
 3936.67  -4837.00
 3945.66  -4839.05
 3950.14  -4840.07
 3952.37  -4840.58
 3954.59  -4841.10
 3978.60  -4846.63
 3990.58  -4849.39
 4002.55  -4852.15
 4006.88  -4853.15
 4019.92  -4856.16
 4032.94  -4859.17
 4039.44  -4860.67
 4045.94  -4862.18
 4052.44  -4863.68
 4055.69  -4864.43
 4057.31  -4864.80
 4058.93  -4865.18
 4066.95  -4868.25
 4070.96  -4869.79
 4072.97  -4870.55
 4073.97  -4870.94
 4074.97  -4871.32
 4080.03  -4873.61
 4085.09  -4875.90
 4090.14  -4878.18
 4092.67  -4879.32
 4093.93  -4879.89
 4095.19  -4880.47
 4095.20  -4880.47
 4095.20  -4880.46
 4094.86  -4879.12
 4094.51  -4877.78
 4093.83  -4875.09
 4092.45  -4869.71
 4091.08  -4864.34
 4089.70  -4858.96
 4089.50  -4857.91
 4089.30  -4856.85
 4088.89  -4854.75
 4088.07  -4850.53
 4086.44  -4842.10
 4086.35  -4840.43
 4086.27  -4838.77
 4086.09  -4835.44
 4085.74  -4828.78
 4085.39  -4822.12
 4085.04  -4815.46
 4084.34  -4802.11
 4083.64  -4788.74
 4083.40  -4784.31
 4082.76  -4772.05
 4082.12  -4759.77
 4080.84  -4735.16
 4080.72  -4732.88
 4080.61  -4730.59
 4080.38  -4726.01
 4079.92  -4716.79
 4079.11  -4699.05
 4078.34  -4681.04
 4078.28  -4679.46
 4078.22  -4677.88
 4077.59  -4661.47
 4077.02  -4644.84
 4076.27  -4619.73
 4076.14  -4614.97
 4076.02  -4610.18
 4075.68  -4594.90
 4075.40  -4579.39
 4075.09  -4553.90
 4075.06  -4550.97
 4075.04  -4548.03
 4074.97  -4532.21
 4074.96  -4524.20
 4074.97  -4516.13
 4075.03  -4501.43
 4075.15  -4486.52
 4075.17  -4485.05
 4075.19  -4483.57
 4075.42  -4467.09
 4075.56  -4458.74
 4075.73  -4450.33
 4076.11  -4434.01
 4076.57  -4417.43
 4076.59  -4416.89
 4076.61  -4416.35
 4077.18  -4399.11
 4077.51  -4390.38
 4077.85  -4381.57
 4078.61  -4364.15
 4079.47  -4346.43
 4079.96  -4341.01
 4080.47  -4335.56
 4081.50  -4324.59
 4083.59  -4303.51
 4085.84  -4282.02
 4087.13  -4270.28
 4090.85  -4238.03
 4096.59  -4192.55
 4096.74  -4191.43
 4103.15  -4145.40
 4108.58  -4109.42
 4110.63  -4096.40
 4119.17  -4045.32
 4123.01  -4023.67
 4128.90  -3991.92
 4140.01  -3935.89
 4140.52  -3933.40
 4141.97  -3928.81
 4143.44  -3924.21
 4146.40  -3914.94
 4152.48  -3896.14
 4164.86  -3858.68
 4178.13  -3819.70
 4180.67  -3812.38
 4183.25  -3804.99
 4200.67  -3756.06
 4219.83  -3704.25
 4223.88  -3693.53
 4247.71  -3631.73
 4273.96  -3565.68
 4276.75  -3558.79
 4279.56  -3551.85
 4306.64  -3486.22
 4337.02  -3414.84
 4349.83  -3385.43
 4387.57  -3304.10
 4423.83  -3222.42
 4449.03  -3169.39
 4486.11  -3100.26
 4522.12  -3030.72
 4557.07  -2960.78
 4590.94  -2890.46
 4596.30  -2880.50
 4602.02  -2869.94
 4614.81  -2846.45
 4651.97  -2779.42
 4692.09  -2708.98
 4733.04  -2639.02
 4772.51  -2573.31
 4786.45  -2550.50
 4792.74  -2540.27
 4798.68  -2530.64
 4842.64  -2466.14
 4885.74  -2400.91
 4927.96  -2334.95
 4969.29  -2268.27
 5002.61  -2219.94
 5055.22  -2147.70
 5106.79  -2074.34
 5125.85  -2048.55
 5172.48  -1986.55
 5215.77  -1930.29
 5220.38  -1924.38
 5224.95  -1918.52
 5269.02  -1862.75
 5310.63  -1811.23
 5317.89  -1802.35
 5353.18  -1759.85
 5386.84  -1720.30
 5391.95  -1714.38
 5397.03  -1708.52
 5424.14  -1677.54
 5450.40  -1648.08
 5463.64  -1633.42
 5470.18  -1626.22
 5473.44  -1622.65
 5476.68  -1619.10
 5478.59  -1617.40
 5521.55  -1579.77
 5546.10  -1558.80
 5562.94  -1544.64
 5602.90  -1511.71
 5613.15  -1503.42
 5641.59  -1480.73
 5678.25  -1452.16
 5679.15  -1451.47
 5715.67  -1423.76
 5741.74  -1404.41
 5751.26  -1397.43
 5768.75  -1384.74
 5785.96  -1372.39
 5794.94  -1366.00
 5799.41  -1362.85
 5803.85  -1359.71
 5818.77  -1350.10
 5833.48  -1340.74
 5840.93  -1336.03
 5848.33  -1331.39
 5862.98  -1322.27
 5863.44  -1321.98
 5863.89  -1321.70
 5878.02  -1313.01
 5891.96  -1304.52
 5899.16  -1300.17
 5906.32  -1295.87
 5920.48  -1287.43
 5921.75  -1286.68
 5923.02  -1285.93
 5935.87  -1278.36
 5948.57  -1270.96
 5955.55  -1266.92
 5962.49  -1262.92
 5976.23  -1255.07
 5978.79  -1253.62
 5981.33  -1252.18
 6003.56  -1239.71
 6017.14  -1232.19
 6030.55  -1224.85
 6034.75  -1222.56
 6038.94  -1220.28
 6061.06  -1208.38
 6075.75  -1200.56
 6090.27  -1192.90
 6091.67  -1192.16
 6093.07  -1191.43
 6109.05  -1183.08
 6124.83  -1174.92
 6133.03  -1170.70
 6137.12  -1168.61
 6139.16  -1167.57
 6141.19  -1166.53
 6163.14  -1155.34
 6174.09  -1149.75
 6185.03  -1144.17
 6188.99  -1142.16
 6200.92  -1136.08
 6212.83  -1130.02
 6218.78  -1126.99
 6224.72  -1123.96
 6230.66  -1120.94
 6233.63  -1119.42
 6235.11  -1118.67
 6236.60  -1117.91
 6244.72  -1115.11
 6248.78  -1113.71
 6250.81  -1113.01
 6251.82  -1112.66
 6252.84  -1112.31
 6258.18  -1110.81
 6263.52  -1109.31
 6268.86  -1107.81
 6271.53  -1107.06
 6272.87  -1106.69
 6274.20  -1106.31
 6274.21  -1106.31
 6274.21  -1106.31
 6273.08  -1105.50
 6271.95  -1104.69
 6269.70  -1103.07
 6265.19  -1099.84
 6260.69  -1096.60
 6256.18  -1093.37
 6255.34  -1092.69
 6254.51  -1092.02
 6252.84  -1090.66
 6249.51  -1087.96
 6242.84  -1082.55
 6241.70  -1081.33
 6240.56  -1080.11
 6238.29  -1077.67
 6233.74  -1072.80
 6229.19  -1067.92
 6224.64  -1063.04
 6215.52  -1053.27
 6206.39  -1043.48
 6203.36  -1040.23
 6194.99  -1031.25
 6186.60  -1022.25
 6169.81  -1004.23
 6168.25  -1002.56
 6166.69  -1000.88
 6163.57   -997.52
 6157.30   -990.75
 6145.26   -977.68
 6133.11   -964.38
 6132.05   -963.21
 6130.98   -962.04
 6119.95   -949.86
 6108.83   -937.49
 6092.11   -918.75
 6088.95   -915.18
 6085.78   -911.59
 6075.70   -900.10
 6065.51   -888.40
 6048.89   -869.07
 6046.99   -866.84
 6045.08   -864.61
 6034.85   -852.53
 6029.70   -846.41
 6024.52   -840.22
 6015.12   -828.92
 6005.63   -817.41
 6004.69   -816.27
 6003.76   -815.14
 5993.34   -802.36
 5988.08   -795.87
 5982.80   -789.32
 5972.61   -776.58
 5962.30   -763.57
 5961.97   -763.15
 5961.64   -762.73
 5951.00   -749.15
 5945.63   -742.25
 5940.24   -735.28
 5929.62   -721.45
 5918.89   -707.32
 5915.78   -702.85
 5912.67   -698.36
 5906.41   -689.29
 5894.46   -671.80
 5882.37   -653.89
 5875.81   -644.07
 5857.93   -616.97
 5833.09   -578.45
 5832.48   -577.49
 5807.80   -538.10
 5788.84   -507.05
 5782.04   -495.76
 5755.75   -451.15
 5744.77   -432.09
 5728.87   -403.98
 5701.37   -353.92
 5700.16   -351.68
 5698.33   -347.24
 5696.49   -342.77
 5692.80   -333.76
 5685.37   -315.46
 5670.78   -278.80
 5655.89   -240.41
 5653.13   -233.16
 5650.35   -225.85
 5632.25   -177.17
 5613.62   -125.17
 5609.83   -114.34
 5588.36    -51.69
 5566.02     15.78
 5563.72     22.85
 5561.42     29.98
 5539.98     97.65
 5517.37    171.86
 5508.27    202.62
 5484.90    289.19
 5460.18    375.07
 5445.40    431.89
 5429.37    508.68
 5412.25    585.10
 5394.07    661.14
 5374.81    736.78
 5372.52    747.86
 5370.11    759.62
 5364.81    785.83
 5350.20    861.07
 5335.65    940.82
 5322.04   1020.73
 5310.05   1096.44
 5306.06   1122.88
 5304.30   1134.76
 5302.67   1145.95
 5294.89   1223.62
 5285.97   1301.29
 5275.91   1378.96
 5264.71   1456.60
 5259.17   1515.05
 5253.03   1604.20
 5245.38   1693.54
 5243.41   1725.56
 5239.28   1803.02
 5236.28   1873.95
 5236.00   1881.43
 5235.74   1888.86
 5233.66   1959.91
 5232.41   2026.13
 5232.27   2037.59
 5231.99   2092.83
 5232.35   2144.77
 5232.46   2152.59
 5232.57   2160.34
 5233.43   2201.50
 5234.61   2240.95
 5235.33   2260.69
 5235.71   2270.41
 5235.91   2275.24
 5236.12   2280.04
 5236.49   2282.57
 5245.21   2339.01
 5250.54   2370.86
 5254.33   2392.52
 5263.78   2443.44
 5266.30   2456.38
 5273.51   2492.04
 5283.22   2537.49
 5283.47   2538.60
 5293.63   2583.30
 5301.16   2614.88
 5303.97   2626.34
 5309.21   2647.31
 5314.46   2667.83
 5317.23   2678.50
 5318.62   2683.79
 5320.01   2689.05
 5325.27   2705.99
 5330.51   2722.62
 5333.20   2731.02
 5335.88   2739.33
 5341.24   2755.73
 5341.41   2756.25
 5341.57   2756.76
 5346.81   2772.50
 5352.03   2787.96
 5354.75   2795.92
 5357.47   2803.82
 5362.89   2819.39
 5363.38   2820.78
 5363.87   2822.16
 5368.85   2836.22
 5373.82   2850.05
 5376.57   2857.64
 5379.32   2865.16
 5384.81   2880.01
 5385.83   2882.76
 5386.85   2885.50
 5395.86   2909.35
 5401.43   2923.83
 5406.98   2938.07
 5408.73   2942.53
 5410.48   2946.97
 5419.78   2970.30
 5426.00   2985.73
 5432.20   3000.94
 5432.80   3002.41
 5433.40   3003.87
 5440.27   3020.52
 5447.11   3036.92
 5450.69   3045.43
 5452.47   3049.66
 5453.36   3051.76
 5454.26   3053.87
 5463.87   3076.55
 5468.68   3087.87
 5473.47   3099.18
 5475.21   3103.26
 5480.44   3115.58
 5485.66   3127.89
 5488.27   3134.03
 5490.88   3140.17
 5493.49   3146.31
 5494.79   3149.37
 5495.44   3150.91
 5496.09   3152.44
 5500.51   3159.81
 5502.72   3163.49
 5503.82   3165.33
 5504.38   3166.25
 5504.93   3167.17
 5508.06   3171.75
 5511.19   3176.34
 5514.32   3180.92
 5515.88   3183.21
 5516.66   3184.35
 5517.44   3185.50
 5517.45   3185.50
" />
<!-- > PPP at  2193.62 seconds at   240.00 degrees for a      0.0 km deep source in the iasp91 model with rayParam    5.404 s/deg.
 -->
<polyline points="
    0.00  -6371.00
   -0.00  -6370.99
   -0.37  -6369.74
   -0.74  -6368.50
   -1.47  -6366.00
   -2.94  -6361.00
   -4.41  -6356.00
   -5.88  -6351.00
   -6.19  -6350.06
   -6.50  -6349.12
   -7.13  -6347.25
   -8.38  -6343.49
  -10.88  -6335.99
  -11.44  -6334.66
  -12.01  -6333.33
  -13.14  -6330.68
  -15.40  -6325.36
  -17.66  -6320.04
  -19.92  -6314.73
  -24.45  -6304.08
  -28.98  -6293.43
  -30.48  -6289.90
  -34.64  -6280.14
  -38.79  -6270.37
  -47.12  -6250.82
  -47.89  -6249.01
  -48.66  -6247.20
  -50.21  -6243.57
  -53.34  -6236.27
  -59.35  -6222.27
  -65.47  -6208.12
  -66.00  -6206.88
  -66.54  -6205.64
  -72.13  -6192.81
  -77.79  -6179.85
  -86.36  -6160.39
  -87.99  -6156.72
  -89.63  -6153.02
  -94.86  -6141.28
 -100.18  -6129.41
 -108.93  -6110.03
 -109.94  -6107.81
 -110.95  -6105.59
 -116.40  -6093.66
 -119.16  -6087.65
 -121.95  -6081.60
 -127.02  -6070.63
 -132.18  -6059.56
 -132.69  -6058.47
 -133.20  -6057.38
 -138.90  -6045.21
 -141.79  -6039.08
 -144.71  -6032.91
 -150.36  -6021.00
 -156.12  -6008.97
 -156.30  -6008.58
 -156.49  -6008.20
 -162.48  -5995.76
 -165.51  -5989.50
 -168.57  -5983.20
 -174.62  -5970.79
 -180.77  -5958.26
 -182.68  -5954.59
 -184.59  -5950.90
 -188.43  -5943.51
 -195.82  -5929.38
 -203.33  -5915.10
 -207.43  -5907.36
 -218.67  -5886.27
 -234.45  -5857.01
 -234.84  -5856.29
 -250.71  -5827.29
 -263.03  -5805.04
 -267.47  -5797.09
 -284.77  -5766.37
 -292.04  -5753.59
 -302.63  -5735.12
 -321.10  -5703.31
 -321.91  -5701.92
 -323.31  -5699.74
 -324.71  -5697.55
 -327.52  -5693.16
 -333.17  -5684.36
 -344.25  -5667.18
 -355.52  -5649.83
 -357.61  -5646.62
 -359.71  -5643.41
 -373.32  -5622.66
 -387.20  -5601.65
 -390.00  -5597.43
 -405.72  -5573.85
 -421.69  -5550.04
 -423.31  -5547.64
 -424.93  -5545.24
 -439.70  -5523.37
 -454.70  -5501.29
 -460.54  -5492.73
 -489.07  -5451.15
 -496.87  -5439.86
 -524.83  -5399.63
 -525.40  -5398.82
 -525.96  -5398.01
 -527.10  -5396.38
 -529.38  -5393.13
 -531.66  -5389.87
 -533.95  -5386.60
 -538.61  -5379.96
 -543.29  -5373.29
 -547.99  -5366.61
 -552.71  -5359.91
 -562.21  -5346.46
 -571.80  -5332.93
 -581.34  -5319.52
 -590.96  -5306.03
 -600.67  -5292.46
 -610.47  -5278.82
 -630.05  -5251.67
 -649.98  -5224.22
 -670.01  -5196.82
 -690.39  -5169.10
 -710.89  -5141.41
 -731.75  -5113.41
 -754.96  -5082.46
 -756.14  -5080.88
 -757.33  -5079.30
 -759.71  -5076.14
 -764.49  -5069.81
 -774.10  -5057.10
 -795.60  -5028.78
 -817.51  -5000.11
 -825.31  -4989.95
 -862.05  -4942.38
 -898.78  -4895.33
 -907.81  -4883.84
 -954.87  -4824.41
 -975.69  -4798.37
-1003.35  -4763.99
-1053.38  -4702.46
-1056.39  -4698.79
-1105.09  -4639.71
-1141.45  -4596.11
-1158.68  -4575.57
-1214.36  -4509.87
-1231.52  -4489.80
-1272.39  -4442.37
-1327.54  -4379.13
-1333.08  -4372.81
-1365.24  -4336.94
-1396.86  -4300.85
-1430.91  -4262.88
-1450.20  -4241.51
-1464.24  -4226.02
-1500.41  -4187.03
-1535.93  -4147.75
-1543.74  -4139.31
-1578.61  -4102.41
-1612.88  -4065.23
-1669.46  -4005.53
-1669.60  -4005.38
-1696.47  -3977.31
-1743.13  -3930.02
-1788.78  -3882.22
-1814.14  -3856.46
-1854.08  -3816.94
-1893.31  -3777.03
-1931.95  -3739.49
-1969.95  -3701.56
-1991.54  -3680.54
-2016.69  -3656.20
-2070.58  -3606.93
-2123.39  -3556.90
-2175.09  -3506.12
-2211.80  -3472.69
-2248.02  -3438.88
-2300.74  -3394.19
-2352.59  -3348.69
-2403.56  -3302.42
-2453.65  -3255.37
-2508.43  -3210.17
-2562.38  -3164.04
-2615.48  -3117.01
-2671.02  -3072.88
-2725.81  -3027.76
-2779.85  -2981.66
-2834.87  -2940.51
-2889.30  -2898.34
-2943.10  -2855.18
-2996.27  -2811.02
-3035.86  -2781.22
-3075.16  -2750.87
-3134.14  -2708.77
-3192.58  -2665.46
-3250.46  -2620.94
-3278.80  -2600.40
-3303.25  -2582.79
-3347.20  -2551.95
-3390.88  -2520.42
-3437.00  -2488.71
-3482.85  -2456.25
-3512.62  -2435.75
-3567.62  -2399.08
-3622.30  -2361.35
-3654.60  -2339.76
-3654.78  -2339.65
-3723.40  -2294.30
-3765.96  -2267.00
-3808.36  -2239.06
-3818.03  -2232.84
-3862.88  -2204.69
-3907.56  -2175.84
-3925.25  -2164.70
-3949.64  -2149.41
-3992.95  -2122.47
-4033.98  -2097.60
-4074.90  -2072.16
-4082.07  -2067.79
-4153.94  -2024.46
-4207.74  -1992.46
-4230.48  -1979.04
-4304.86  -1935.62
-4328.07  -1922.21
-4377.32  -1893.98
-4443.96  -1856.27
-4448.11  -1853.95
-4517.38  -1815.37
-4556.04  -1794.09
-4585.31  -1778.11
-4652.01  -1742.09
-4664.89  -1735.19
-4717.60  -1707.19
-4770.83  -1679.26
-4782.19  -1673.35
-4814.22  -1656.75
-4845.85  -1640.49
-4860.04  -1633.23
-4867.10  -1629.63
-4870.63  -1627.84
-4872.39  -1626.94
-4874.15  -1626.04
-4908.66  -1608.56
-4939.86  -1592.88
-4970.68  -1577.51
-5001.52  -1562.25
-5031.99  -1547.28
-5062.48  -1532.42
-5092.62  -1517.85
-5107.75  -1510.57
-5122.80  -1503.37
-5137.75  -1496.23
-5152.62  -1489.17
-5167.61  -1482.07
-5182.51  -1475.05
-5189.93  -1471.56
-5197.32  -1468.09
-5204.70  -1464.64
-5212.05  -1461.21
-5215.66  -1459.52
-5219.27  -1457.84
-5222.87  -1456.16
-5224.67  -1455.33
-5225.57  -1454.91
-5226.46  -1454.49
-5270.93  -1433.94
-5283.41  -1428.22
-5329.31  -1407.34
-5338.75  -1403.08
-5363.10  -1392.14
-5387.21  -1381.39
-5389.86  -1380.21
-5392.50  -1379.04
-5418.72  -1367.45
-5444.67  -1356.06
-5449.31  -1354.03
-5472.41  -1344.01
-5495.21  -1334.21
-5498.74  -1332.70
-5502.26  -1331.20
-5521.30  -1323.12
-5540.15  -1315.18
-5549.80  -1311.15
-5554.60  -1309.14
-5557.00  -1308.14
-5559.40  -1307.15
-5560.91  -1306.59
-5595.44  -1293.93
-5615.47  -1286.70
-5629.32  -1281.76
-5662.58  -1270.06
-5671.18  -1267.07
-5695.22  -1258.79
-5726.54  -1248.20
-5727.32  -1247.94
-5758.87  -1237.48
-5781.59  -1230.08
-5789.93  -1227.39
-5805.30  -1222.47
-5820.49  -1217.65
-5828.44  -1215.14
-5832.40  -1213.90
-5836.35  -1212.67
-5849.76  -1208.78
-5863.03  -1204.97
-5869.76  -1203.06
-5876.46  -1201.16
-5889.74  -1197.42
-5890.16  -1197.31
-5890.57  -1197.19
-5903.42  -1193.61
-5916.13  -1190.11
-5922.71  -1188.31
-5929.25  -1186.53
-5942.22  -1183.02
-5943.39  -1182.71
-5944.55  -1182.40
-5956.35  -1179.25
-5968.03  -1176.15
-5974.47  -1174.46
-5980.87  -1172.79
-5993.57  -1169.49
-5995.93  -1168.88
-5998.29  -1168.27
-6018.89  -1163.01
-6031.51  -1159.83
-6043.98  -1156.72
-6047.90  -1155.75
-6051.81  -1154.79
-6072.46  -1149.73
-6086.20  -1146.40
-6099.81  -1143.13
-6101.13  -1142.81
-6102.44  -1142.50
-6117.43  -1138.93
-6132.27  -1135.44
-6139.99  -1133.63
-6143.84  -1132.74
-6145.76  -1132.29
-6147.68  -1131.85
-6168.38  -1127.04
-6178.72  -1124.64
-6189.05  -1122.25
-6192.79  -1121.38
-6204.06  -1118.77
-6215.33  -1116.16
-6220.96  -1114.85
-6226.59  -1113.55
-6232.22  -1112.24
-6235.03  -1111.59
-6236.44  -1111.27
-6237.84  -1110.94
-6245.67  -1109.78
-6249.58  -1109.20
-6251.54  -1108.91
-6252.51  -1108.77
-6253.49  -1108.62
-6258.67  -1108.05
-6263.85  -1107.47
-6269.03  -1106.89
-6271.62  -1106.60
-6272.91  -1106.46
-6274.21  -1106.31
-6274.21  -1106.31
-6274.21  -1106.31
-6273.04  -1105.73
-6271.87  -1105.15
-6269.54  -1103.99
-6264.87  -1101.68
-6260.20  -1099.36
-6255.53  -1097.05
-6254.66  -1096.58
-6253.79  -1096.11
-6252.05  -1095.17
-6248.58  -1093.29
-6241.62  -1089.52
-6240.41  -1088.73
-6239.20  -1087.95
-6236.78  -1086.37
-6231.94  -1083.22
-6227.09  -1080.07
-6222.25  -1076.92
-6212.56  -1070.61
-6202.85  -1064.30
-6199.64  -1062.21
-6190.75  -1056.42
-6181.85  -1050.63
-6164.04  -1039.04
-6162.39  -1037.96
-6160.74  -1036.89
-6157.43  -1034.73
-6150.79  -1030.39
-6138.04  -1022.03
-6125.17  -1013.55
-6124.05  -1012.81
-6122.92  -1012.07
-6111.25  -1004.34
-6099.48   -996.51
-6081.80   -984.69
-6078.46   -982.45
-6075.11   -980.19
-6064.45   -973.00
-6053.68   -965.70
-6036.12   -953.71
-6034.11   -952.34
-6032.10   -950.96
-6021.30   -943.52
-6015.86   -939.75
-6010.39   -935.96
-6000.47   -929.06
-5990.45   -922.06
-5989.47   -921.37
-5988.48   -920.68
-5977.49   -912.95
-5971.95   -909.03
-5966.39   -905.09
-5955.64   -897.45
-5944.79   -889.70
-5944.44   -889.45
-5944.09   -889.20
-5932.89   -881.14
-5927.24   -877.07
-5921.57   -872.96
-5910.41   -864.85
-5899.13   -856.61
-5895.84   -854.10
-5892.55   -851.58
-5885.93   -846.51
-5873.31   -836.78
-5860.55   -826.90
-5853.63   -821.52
-5834.81   -806.79
-5808.74   -786.17
-5808.10   -785.66
-5782.29   -765.00
-5762.53   -749.00
-5755.47   -743.25
-5728.22   -720.88
-5716.90   -711.49
-5700.54   -697.85
-5672.43   -674.15
-5671.20   -673.10
-5669.29   -671.35
-5667.37   -669.59
-5663.54   -666.06
-5655.86   -658.97
-5640.86   -645.07
-5625.73   -630.96
-5622.94   -628.34
-5620.14   -625.72
-5602.06   -608.72
-5583.78   -591.39
-5580.12   -587.90
-5559.63   -568.33
-5538.95   -548.47
-5536.87   -546.46
-5534.79   -544.45
-5515.81   -526.10
-5496.67   -507.49
-5489.25   -500.26
-5453.26   -464.94
-5443.49   -455.30
-5408.74   -420.78
-5408.03   -420.08
-5407.33   -419.38
-5405.93   -417.98
-5403.12   -415.17
-5400.30   -412.36
-5397.49   -409.54
-5391.75   -403.79
-5386.00   -398.03
-5380.24   -392.24
-5374.46   -386.43
-5362.86   -374.73
-5351.21   -362.94
-5339.65   -351.21
-5328.04   -339.39
-5316.36   -327.48
-5304.63   -315.46
-5281.30   -291.46
-5257.72   -267.07
-5234.21   -242.59
-5210.45   -217.70
-5186.75   -192.71
-5162.79   -167.30
-5136.34   -139.07
-5134.99   -137.63
-5133.65   -136.18
-5130.95   -133.29
-5125.54   -127.49
-5114.69   -115.82
-5090.53    -89.72
-5066.11    -63.17
-5057.46    -53.73
-5016.99     -9.28
-4977.03     35.06
-4967.29     45.95
-4916.93    102.62
-4894.90    127.64
-4865.84    160.85
-4813.94    220.80
-4810.84    224.41
-4761.12    282.63
-4724.49    326.00
-4707.26    346.54
-4652.22    412.78
-4635.44    433.17
-4595.83    481.65
-4543.12    546.94
-4537.87    553.50
-4508.12    591.40
-4478.07    628.80
-4446.59    668.93
-4428.90    691.64
-4416.08    708.16
-4383.97    750.55
-4351.45    792.35
-4344.49    801.50
-4314.21    842.25
-4283.55    882.46
-4234.57    948.55
-4234.45    948.71
-4211.47    980.04
-4173.00   1034.21
-4133.86   1087.47
-4112.89   1116.91
-4080.91   1163.11
-4048.42   1208.68
-4018.15   1253.24
-3987.40   1297.25
-3970.45   1322.17
-3950.84   1351.16
-3911.69   1412.79
-3871.58   1473.48
-3830.55   1533.21
-3804.00   1575.17
-3777.00   1616.71
-3742.14   1676.39
-3706.34   1735.36
-3669.62   1793.59
-3631.99   1851.09
-3596.98   1912.88
-3560.92   1974.02
-3523.83   2034.49
-3490.01   2096.84
-3455.09   2158.64
-3419.08   2219.85
-3388.10   2281.19
-3356.03   2342.11
-3322.86   2402.59
-3288.61   2462.62
-3266.14   2506.78
-3243.07   2550.75
-3211.86   2616.15
-3179.35   2681.23
-3145.56   2745.95
-3130.25   2777.43
-3117.15   2804.57
-3094.41   2853.21
-3070.95   2901.70
-3047.73   2952.62
-3023.72   3003.42
-3008.70   3036.29
-2982.15   3096.83
-2954.47   3157.22
-2938.83   3192.79
-2938.75   3192.98
-2906.00   3268.43
-2886.51   3315.09
-2866.36   3361.69
-2861.91   3372.30
-2841.97   3421.35
-2821.32   3470.36
-2813.42   3489.72
-2802.60   3516.40
-2783.59   3563.72
-2766.22   3608.45
-2748.27   3653.16
-2745.22   3660.99
-2715.03   3739.29
-2692.85   3797.83
-2683.59   3822.56
-2653.74   3903.34
-2644.57   3928.53
-2625.32   3981.94
-2599.76   4054.11
-2598.18   4058.60
-2572.22   4133.52
-2557.98   4175.29
-2547.33   4206.88
-2523.43   4278.83
-2518.88   4292.71
-2500.45   4349.48
-2482.19   4406.75
-2478.34   4418.96
-2467.56   4453.39
-2457.04   4487.36
-2452.36   4502.60
-2450.04   4510.18
-2448.88   4513.96
-2448.30   4515.85
-2447.73   4517.74
-2436.50   4554.76
-2426.48   4588.21
-2416.69   4621.24
-2407.02   4654.26
-2397.57   4686.86
-2388.23   4719.47
-2379.11   4751.68
-2374.57   4767.85
-2370.09   4783.91
-2365.66   4799.88
-2361.28   4815.75
-2356.90   4831.74
-2352.57   4847.64
-2350.43   4855.55
-2348.29   4863.43
-2346.17   4871.29
-2344.07   4879.13
-2343.04   4882.98
-2342.01   4886.82
-2340.98   4890.66
-2340.47   4892.58
-2340.21   4893.54
-2339.96   4894.49
-2327.44   4941.85
-2323.97   4955.14
-2311.38   5003.96
-2308.83   5014.00
-2302.28   5039.88
-2295.88   5065.49
-2295.18   5068.30
-2294.48   5071.11
-2287.62   5098.95
-2280.91   5126.48
-2279.72   5131.40
-2273.86   5155.89
-2268.17   5180.05
-2267.30   5183.78
-2266.43   5187.50
-2261.78   5207.67
-2257.24   5227.61
-2254.94   5237.81
-2253.80   5242.89
-2253.23   5245.42
-2252.67   5247.95
-2252.38   5249.54
-2245.91   5285.75
-2242.27   5306.73
-2239.81   5321.23
-2234.05   5356.01
-2232.60   5365.00
-2228.63   5390.11
-2223.64   5422.80
-2223.52   5423.60
-2218.70   5456.49
-2215.35   5480.16
-2214.15   5488.84
-2211.97   5504.83
-2209.86   5520.62
-2208.78   5528.89
-2208.24   5533.00
-2207.71   5537.10
-2206.21   5550.99
-2204.77   5564.71
-2204.05   5571.68
-2203.34   5578.61
-2201.97   5592.34
-2201.93   5592.76
-2201.89   5593.19
-2200.60   5606.47
-2199.35   5619.59
-2198.72   5626.38
-2198.10   5633.13
-2196.91   5646.52
-2196.80   5647.72
-2196.69   5648.92
-2195.64   5661.09
-2194.62   5673.13
-2194.07   5679.76
-2193.53   5686.36
-2192.49   5699.44
-2192.30   5701.87
-2192.11   5704.29
-2190.51   5725.50
-2189.57   5738.47
-2188.67   5751.30
-2188.40   5755.33
-2188.13   5759.34
-2186.73   5780.56
-2185.84   5794.67
-2184.98   5808.64
-2184.90   5809.99
-2184.82   5811.34
-2183.91   5826.72
-2183.04   5841.94
-2182.61   5849.86
-2182.39   5853.80
-2182.29   5855.77
-2182.18   5857.74
-2181.04   5878.96
-2180.48   5889.56
-2179.91   5900.15
-2179.71   5903.98
-2179.09   5915.54
-2178.48   5927.09
-2178.17   5932.86
-2177.86   5938.63
-2177.56   5944.40
-2177.40   5947.28
-2177.33   5948.72
-2177.25   5950.17
-2177.47   5958.07
-2177.58   5962.02
-2177.63   5964.00
-2177.66   5964.99
-2177.69   5965.98
-2178.02   5971.18
-2178.35   5976.38
-2178.68   5981.58
-2178.84   5984.18
-2178.92   5985.48
-2179.01   5986.78
-2179.01   5986.78
-2179.00   5986.78
-2178.23   5985.73
-2177.46   5984.68
-2175.91   5982.58
-2172.82   5978.39
-2169.73   5974.19
-2166.64   5970.00
-2166.03   5969.22
-2165.41   5968.45
-2164.18   5966.90
-2161.73   5963.80
-2156.81   5957.60
-2155.83   5956.55
-2154.84   5955.49
-2152.87   5953.38
-2148.93   5949.16
-2144.98   5944.94
-2141.04   5940.72
-2133.14   5932.26
-2125.24   5923.81
-2122.62   5921.00
-2115.38   5913.25
-2108.13   5905.49
-2093.62   5889.97
-2092.28   5888.53
-2090.93   5887.09
-2088.23   5884.21
-2082.81   5878.42
-2072.36   5867.32
-2061.78   5856.12
-2060.85   5855.14
-2059.92   5854.16
-2050.28   5844.01
-2040.53   5833.77
-2025.82   5818.42
-2023.03   5815.52
-2020.23   5812.61
-2011.30   5803.36
-2002.24   5794.02
-1987.38   5778.81
-1985.68   5777.07
-1983.97   5775.33
-1974.77   5765.98
-1970.12   5761.28
-1965.43   5756.55
-1956.91   5747.98
-1948.28   5739.33
-1947.43   5738.48
-1946.58   5737.63
-1937.05   5728.15
-1932.24   5723.37
-1927.39   5718.58
-1918.00   5709.32
-1908.48   5699.98
-1908.18   5699.68
-1907.87   5699.38
-1897.99   5689.75
-1893.00   5684.89
-1887.97   5680.02
-1878.04   5670.43
-1867.97   5660.76
-1864.92   5657.96
-1861.87   5655.15
-1855.73   5649.52
-1843.96   5638.77
-1832.01   5627.92
-1825.51   5622.05
-1807.74   5606.07
-1782.90   5583.97
-1782.29   5583.44
-1757.46   5561.61
-1738.27   5544.92
-1731.38   5538.96
-1704.62   5516.02
-1693.41   5506.49
-1677.14   5492.76
-1648.91   5469.19
-1647.67   5468.15
-1645.61   5466.58
-1643.54   5465.00
-1639.41   5461.84
-1631.09   5455.51
-1614.79   5443.15
-1598.27   5430.70
-1595.21   5428.40
-1592.14   5426.10
-1572.25   5411.25
-1552.02   5396.26
-1547.95   5393.25
-1525.11   5376.48
-1501.96   5359.56
-1499.62   5357.86
-1497.28   5356.16
-1475.91   5340.65
-1454.27   5325.04
-1445.85   5318.99
-1404.82   5289.68
-1393.63   5281.73
-1353.60   5253.50
-1352.79   5252.93
-1351.98   5252.36
-1350.35   5251.22
-1347.10   5248.94
-1343.84   5246.66
-1340.58   5244.37
-1333.92   5239.72
-1327.25   5235.06
-1320.55   5230.39
-1313.82   5225.71
-1300.29   5216.32
-1286.65   5206.89
-1273.10   5197.54
-1259.44   5188.16
-1245.68   5178.73
-1231.81   5169.26
-1204.12   5150.45
-1176.00   5131.47
-1147.81   5112.57
-1119.17   5093.49
-1090.45   5074.49
-1061.27   5055.30
-1028.87   5034.16
-1027.22   5033.08
-1025.56   5032.01
-1022.24   5029.85
-1015.59   5025.54
-1002.21   5016.87
 -972.32   4997.62
 -941.93   4978.17
 -931.13   4971.29
 -880.33   4939.16
 -829.72   4907.51
 -817.31   4899.80
 -752.76   4860.05
 -724.29   4842.70
 -686.53   4819.85
 -618.48   4779.15
 -614.40   4776.72
 -548.42   4737.86
 -499.35   4709.32
 -476.13   4695.92
 -401.34   4653.22
 -378.35   4640.24
 -323.73   4609.65
 -250.27   4569.08
 -242.90   4565.04
 -200.41   4542.33
 -158.36   4519.23
 -113.37   4495.20
  -87.94   4481.71
  -69.44   4471.96
  -22.12   4447.70
   24.69   4422.93
   34.91   4417.67
   80.30   4394.92
  125.22   4371.71
  198.81   4334.95
  199.00   4334.86
  233.84   4317.67
  293.86   4289.20
  353.11   4259.89
  385.75   4244.36
  436.80   4220.89
  487.31   4196.80
  536.46   4174.73
  585.14   4152.09
  612.62   4139.72
  644.58   4125.45
  712.07   4097.59
  778.80   4068.63
  844.75   4038.60
  890.68   4019.74
  936.29   4000.36
 1001.11   3976.39
 1065.39   3951.37
 1129.12   3925.32
 1192.28   3898.25
 1259.21   3874.50
 1325.69   3849.61
 1391.67   3823.58
 1458.95   3801.10
 1525.88   3777.45
 1592.41   3752.61
 1658.20   3732.75
 1723.76   3711.75
 1789.09   3689.59
 1854.15   3666.28
 1901.54   3651.81
 1948.85   3636.74
 2018.68   3617.35
 2088.41   3596.64
 2158.02   3574.60
 2191.67   3564.99
 2220.68   3556.80
 2272.52   3542.86
 2324.36   3528.17
 2378.54   3514.15
 2432.73   3499.32
 2467.71   3490.24
 2531.94   3474.60
 2596.22   3457.83
 2633.96   3448.60
 2634.16   3448.55
 2714.16   3429.41
 2763.49   3418.32
 2812.89   3406.57
 2824.10   3404.03
 2875.87   3392.91
 2927.73   3381.08
 2948.16   3376.66
 2976.31   3370.64
 3026.22   3360.13
 3073.29   3350.80
 3120.43   3340.89
 3128.67   3339.24
 3211.02   3323.10
 3272.53   3311.43
 3298.48   3306.60
 3383.22   3291.23
 3409.63   3286.57
 3465.56   3276.89
 3541.08   3264.25
 3545.77   3263.48
 3624.06   3250.92
 3667.67   3244.15
 3700.63   3239.14
 3775.63   3228.10
 3790.10   3226.03
 3849.21   3217.75
 3908.78   3209.71
 3921.47   3208.03
 3957.25   3203.40
 3992.53   3198.93
 4008.35   3196.97
 4016.22   3196.00
 4020.14   3195.52
 4022.10   3195.28
 4024.06   3195.04
 4062.47   3190.41
 4097.16   3186.35
 4131.38   3182.44
 4165.57   3178.65
 4199.32   3175.01
 4233.06   3171.47
 4266.36   3168.08
 4283.07   3166.42
 4299.67   3164.80
 4316.17   3163.21
 4332.56   3161.66
 4349.07   3160.12
 4365.47   3158.61
 4373.63   3157.87
 4381.77   3157.14
 4389.88   3156.42
 4397.96   3155.71
 4401.93   3155.36
 4405.90   3155.01
 4409.86   3154.67
 4411.83   3154.50
 4412.82   3154.41
 4413.81   3154.33
 4462.62   3150.22
 4476.30   3149.12
 4526.58   3145.20
 4536.91   3144.42
 4563.53   3142.47
 4589.86   3140.61
 4592.75   3140.41
 4595.63   3140.21
 4624.24   3138.29
 4652.52   3136.46
 4657.57   3136.15
 4682.71   3134.62
 4707.49   3133.22
 4711.32   3133.01
 4715.13   3132.80
 4735.80   3131.72
 4756.22   3130.71
 4766.67   3130.21
 4771.87   3129.97
 4774.46   3129.86
 4777.05   3129.74
 4778.67   3129.73
 4815.45   3129.64
 4836.74   3129.71
 4851.45   3129.80
 4886.70   3130.17
 4895.80   3130.31
 4921.23   3130.76
 4954.28   3131.52
 4955.10   3131.54
 4988.33   3132.50
 5012.21   3133.31
 5020.97   3133.64
 5037.09   3134.27
 5053.02   3134.93
 5061.34   3135.30
 5065.49   3135.49
 5069.62   3135.68
 5083.55   3136.61
 5097.32   3137.57
 5104.31   3138.08
 5111.25   3138.58
 5125.01   3139.62
 5125.44   3139.65
 5125.87   3139.68
 5139.16   3140.72
 5152.30   3141.77
 5159.10   3142.33
 5165.86   3142.89
 5179.25   3144.03
 5180.45   3144.14
 5181.65   3144.24
 5193.82   3145.32
 5205.85   3146.41
 5212.48   3147.02
 5219.07   3147.63
 5232.13   3148.88
 5234.55   3149.11
 5236.98   3149.35
 5258.14   3151.45
 5271.08   3152.78
 5283.87   3154.12
 5287.88   3154.55
 5291.88   3154.98
 5313.02   3157.29
 5327.07   3158.86
 5340.98   3160.44
 5342.32   3160.60
 5343.66   3160.75
 5358.97   3162.53
 5374.11   3164.32
 5381.98   3165.26
 5385.90   3165.74
 5387.86   3165.97
 5389.81   3166.21
 5410.91   3168.78
 5421.45   3170.06
 5431.98   3171.34
 5435.79   3171.81
 5447.28   3173.21
 5458.76   3174.61
 5464.49   3175.31
 5470.23   3176.01
 5475.96   3176.71
 5478.83   3177.06
 5480.26   3177.23
 5481.69   3177.41
 5489.44   3178.99
 5493.32   3179.79
 5495.25   3180.18
 5496.22   3180.38
 5497.19   3180.58
 5502.25   3181.81
 5507.32   3183.04
 5512.38   3184.26
 5514.91   3184.88
 5516.18   3185.19
 5517.45   3185.49
 5517.45   3185.49
" />
<g class="phasename">
<text x=" 1054.04" y=" -608.55">PKiKP</text>
<text x=" 5517.45" y="-3185.50">PP</text>
<text x=" 4692.09" y="-2708.98">PPP</text>
<text x=" 3523.83" y=" 2034.49">PPP</text>
</g> <!-- end labels -->
</g> <!-- end translate -->
</svg>
