<?xml version="1.0" encoding="UTF-8" standalone="no"?>
<svg
   xmlns:dc="http://purl.org/dc/elements/1.1/"
   xmlns:cc="http://creativecommons.org/ns#"
   xmlns:rdf="http://www.w3.org/1999/02/22-rdf-syntax-ns#"
   xmlns:svg="http://www.w3.org/2000/svg"
   xmlns="http://www.w3.org/2000/svg"
   xmlns:sodipodi="http://sodipodi.sourceforge.net/DTD/sodipodi-0.dtd"
   xmlns:inkscape="http://www.inkscape.org/namespaces/inkscape"
   version="1.1"
   width="512"
   height="256"
   viewBox="0 0 14352.589 7176.2945"
   id="svg2"
   inkscape:version="0.48.2 r9819"
   sodipodi:docname="taupLogo.svg">
  <metadata
     id="metadata62">
    <rdf:RDF>
      <cc:Work
         rdf:about="">
        <dc:format>image/svg+xml</dc:format>
        <dc:type
           rdf:resource="http://purl.org/dc/dcmitype/StillImage" />
        <dc:title />
      </cc:Work>
    </rdf:RDF>
  </metadata>
  <sodipodi:namedview
     pagecolor="#ffffff"
     bordercolor="#666666"
     borderopacity="1"
     objecttolerance="10"
     gridtolerance="10"
     guidetolerance="10"
     inkscape:pageopacity="0"
     inkscape:pageshadow="2"
     inkscape:window-width="1126"
     inkscape:window-height="854"
     id="namedview60"
     showgrid="false"
     inkscape:zoom="1.3007812"
     inkscape:cx="256"
     inkscape:cy="245.74073"
     inkscape:window-x="584"
     inkscape:window-y="413"
     inkscape:window-maximized="0"
     inkscape:current-layer="svg2" />
  <!--
 This script will plot ray paths generated by TauP using SVG. -->
  <defs
     id="defs4">
    <style
       type="text/css"
       id="style6">
        circle {
            vector-effect: non-scaling-stroke;
            stroke: grey;
            fill: transparent;
        }
        polyline {
            vector-effect: non-scaling-stroke;
            stroke: black;
            fill: transparent;
        }
    </style>
  </defs>
  <g
     id="g3807"
     transform="matrix(0.5,0,0,0.5,5920.6363,-203.9599)">
    <polyline
       transform="translate(7008.1,7344.4888)"
       points="    0.00  -6371.00,     0.00  -6689.55"
       id="polyline10"
       style="fill:none;stroke:#cdcdcd;stroke-width:140.16200256;stroke-linecap:round;stroke-linejoin:round;stroke-miterlimit:4;stroke-opacity:1;stroke-dasharray:none" />
    <polyline
       transform="translate(7008.1,7344.4888)"
       points=" 3185.50  -5517.45,  3344.78  -5793.32"
       id="polyline12"
       style="fill:none;stroke:#cdcdcd;stroke-width:140.16200256;stroke-linecap:round;stroke-linejoin:round;stroke-miterlimit:4;stroke-opacity:1;stroke-dasharray:none" />
    <polyline
       transform="translate(7008.1,7344.4888)"
       points=" 5517.45  -3185.50,  5793.32  -3344.77"
       id="polyline14"
       style="fill:none;stroke:#cdcdcd;stroke-width:140.16200256;stroke-linecap:round;stroke-linejoin:round;stroke-miterlimit:4;stroke-opacity:1;stroke-dasharray:none" />
    <polyline
       transform="translate(7008.1,7344.4888)"
       points=" 6371.00      0.00,  6689.55      0.00"
       id="polyline16"
       style="fill:none;stroke:#cdcdcd;stroke-width:140.16200256;stroke-linecap:round;stroke-linejoin:round;stroke-miterlimit:4;stroke-opacity:1;stroke-dasharray:none" />
    <polyline
       transform="translate(7008.1,7344.4888)"
       points=" 5517.45   3185.50,  5793.32   3344.77"
       id="polyline18"
       style="fill:none;stroke:#cdcdcd;stroke-width:140.16200256;stroke-linecap:round;stroke-linejoin:round;stroke-miterlimit:4;stroke-opacity:1;stroke-dasharray:none" />
    <polyline
       transform="translate(7008.1,7344.4888)"
       points=" 3185.50   5517.45,  3344.78   5793.32"
       id="polyline20"
       style="fill:none;stroke:#cdcdcd;stroke-width:140.16200256;stroke-linecap:round;stroke-linejoin:round;stroke-miterlimit:4;stroke-opacity:1;stroke-dasharray:none" />
    <polyline
       transform="translate(7008.1,7344.4888)"
       points="    0.00   6371.00,     0.00   6689.55"
       id="polyline22"
       style="fill:none;stroke:#cdcdcd;stroke-width:140.16200256;stroke-linecap:round;stroke-linejoin:round;stroke-miterlimit:4;stroke-opacity:1;stroke-dasharray:none" />
    <polyline
       transform="translate(7008.1,7344.4888)"
       points="-3185.50   5517.45, -3344.77   5793.32"
       id="polyline24"
       style="fill:none;stroke:#cdcdcd;stroke-width:140.16200256;stroke-linecap:round;stroke-linejoin:round;stroke-miterlimit:4;stroke-opacity:1;stroke-dasharray:none" />
    <polyline
       transform="translate(7008.1,7344.4888)"
       points="-5517.45   3185.50, -5793.32   3344.77"
       id="polyline26"
       style="fill:none;stroke:#cdcdcd;stroke-width:140.16200256;stroke-linecap:round;stroke-linejoin:round;stroke-miterlimit:4;stroke-opacity:1;stroke-dasharray:none" />
    <polyline
       transform="translate(7008.1,7344.4888)"
       points="-6371.00      0.00, -6689.55      0.00"
       id="polyline28"
       style="fill:none;stroke:#cdcdcd;stroke-width:140.16200256;stroke-linecap:round;stroke-linejoin:round;stroke-miterlimit:4;stroke-opacity:1;stroke-dasharray:none" />
    <polyline
       transform="translate(7008.1,7344.4888)"
       points="-5517.45  -3185.50, -5793.32  -3344.78"
       id="polyline30"
       style="fill:none;stroke:#cdcdcd;stroke-width:140.16200256;stroke-linecap:round;stroke-linejoin:round;stroke-miterlimit:4;stroke-opacity:1;stroke-dasharray:none" />
    <polyline
       transform="translate(7008.1,7344.4888)"
       points="-3185.50  -5517.45, -3344.78  -5793.32"
       id="polyline32"
       style="fill:none;stroke:#cdcdcd;stroke-width:140.16200256;stroke-linecap:round;stroke-linejoin:round;stroke-miterlimit:4;stroke-opacity:1;stroke-dasharray:none" />
    <circle
       transform="translate(7008.1,7344.4888)"
       cx="0"
       cy="0"
       r="6371"
       id="circle34"
       d="M 6371,0 C 6371,3518.6061 3518.6061,6371 0,6371 -3518.6061,6371 -6371,3518.6061 -6371,0 c 0,-3518.6061 2852.3939,-6371 6371,-6371 3518.6061,0 6371,2852.3939 6371,6371 z"
       style="fill:none;stroke:#cdcdcd;stroke-width:140.16200256;stroke-linecap:round;stroke-linejoin:round;stroke-miterlimit:4;stroke-opacity:1;stroke-dasharray:none"
       sodipodi:cx="0"
       sodipodi:cy="0"
       sodipodi:rx="6371"
       sodipodi:ry="6371" />
    <circle
       transform="translate(7008.1,7344.4888)"
       cx="0"
       cy="0"
       r="6371"
       id="circle36"
       d="M 6371,0 C 6371,3518.6061 3518.6061,6371 0,6371 -3518.6061,6371 -6371,3518.6061 -6371,0 c 0,-3518.6061 2852.3939,-6371 6371,-6371 3518.6061,0 6371,2852.3939 6371,6371 z"
       style="fill:none;stroke:#cdcdcd;stroke-width:140.16200256;stroke-linecap:round;stroke-linejoin:round;stroke-miterlimit:4;stroke-opacity:1;stroke-dasharray:none"
       sodipodi:cx="0"
       sodipodi:cy="0"
       sodipodi:rx="6371"
       sodipodi:ry="6371" />
    <circle
       transform="translate(7008.1,7344.4888)"
       cx="0"
       cy="0"
       r="6351"
       id="circle38"
       d="M 6351,0 C 6351,3507.5604 3507.5604,6351 0,6351 -3507.5604,6351 -6351,3507.5604 -6351,0 c 0,-3507.5604 2843.4396,-6351 6351,-6351 3507.5604,0 6351,2843.4396 6351,6351 z"
       style="fill:none;stroke:#cdcdcd;stroke-width:140.16200256;stroke-linecap:round;stroke-linejoin:round;stroke-miterlimit:4;stroke-opacity:1;stroke-dasharray:none"
       sodipodi:cx="0"
       sodipodi:cy="0"
       sodipodi:rx="6351"
       sodipodi:ry="6351" />
    <circle
       transform="translate(7008.1,7344.4888)"
       cx="0"
       cy="0"
       r="6336"
       id="circle40"
       d="M 6336,0 C 6336,3499.2762 3499.2762,6336 0,6336 -3499.2762,6336 -6336,3499.2762 -6336,0 c 0,-3499.2762 2836.7238,-6336 6336,-6336 3499.2762,0 6336,2836.7238 6336,6336 z"
       style="fill:none;stroke:#cdcdcd;stroke-width:140.16200256;stroke-linecap:round;stroke-linejoin:round;stroke-miterlimit:4;stroke-opacity:1;stroke-dasharray:none"
       sodipodi:cx="0"
       sodipodi:cy="0"
       sodipodi:rx="6336"
       sodipodi:ry="6336" />
    <circle
       transform="translate(7008.1,7344.4888)"
       cx="0"
       cy="0"
       r="6161"
       id="circle42"
       d="M 6161,0 C 6161,3402.6263 3402.6263,6161 0,6161 -3402.6263,6161 -6161,3402.6263 -6161,0 c 0,-3402.6263 2758.3737,-6161 6161,-6161 3402.6263,0 6161,2758.3737 6161,6161 z"
       style="fill:none;stroke:#cdcdcd;stroke-width:140.16200256;stroke-linecap:round;stroke-linejoin:round;stroke-miterlimit:4;stroke-opacity:1;stroke-dasharray:none"
       sodipodi:cx="0"
       sodipodi:cy="0"
       sodipodi:rx="6161"
       sodipodi:ry="6161" />
    <circle
       transform="translate(7008.1,7344.4888)"
       cx="0"
       cy="0"
       r="5961"
       id="circle44"
       d="M 5961,0 C 5961,3292.1694 3292.1694,5961 0,5961 -3292.1694,5961 -5961,3292.1694 -5961,0 c 0,-3292.1694 2668.8306,-5961 5961,-5961 3292.1694,0 5961,2668.8306 5961,5961 z"
       style="fill:none;stroke:#cdcdcd;stroke-width:140.16200256;stroke-linecap:round;stroke-linejoin:round;stroke-miterlimit:4;stroke-opacity:1;stroke-dasharray:none"
       sodipodi:cx="0"
       sodipodi:cy="0"
       sodipodi:rx="5961"
       sodipodi:ry="5961" />
    <circle
       transform="translate(7008.1,7344.4888)"
       cx="0"
       cy="0"
       r="5711"
       id="circle46"
       d="M 5711,0 C 5711,3154.0982 3154.0982,5711 0,5711 -3154.0982,5711 -5711,3154.0982 -5711,0 c 0,-3154.0982 2556.9018,-5711 5711,-5711 3154.0982,0 5711,2556.9018 5711,5711 z"
       style="fill:none;stroke:#cdcdcd;stroke-width:140.16200256;stroke-linecap:round;stroke-linejoin:round;stroke-miterlimit:4;stroke-opacity:1;stroke-dasharray:none"
       sodipodi:cx="0"
       sodipodi:cy="0"
       sodipodi:rx="5711"
       sodipodi:ry="5711" />
    <circle
       transform="translate(7008.1,7344.4888)"
       cx="0"
       cy="0"
       r="3482"
       id="circle48"
       d="M 3482,0 C 3482,1923.0555 1923.0555,3482 0,3482 -1923.0555,3482 -3482,1923.0555 -3482,0 c 0,-1923.0555 1558.9445,-3482 3482,-3482 1923.0555,0 3482,1558.9445 3482,3482 z"
       style="fill:none;stroke:#cdcdcd;stroke-width:140.16200256;stroke-linecap:round;stroke-linejoin:round;stroke-miterlimit:4;stroke-opacity:1;stroke-dasharray:none"
       sodipodi:cx="0"
       sodipodi:cy="0"
       sodipodi:rx="3482"
       sodipodi:ry="3482" />
    <circle
       transform="translate(7008.1,7344.4888)"
       cx="0"
       cy="0"
       r="1217.1"
       id="circle50"
       d="M 1217.1,0 C 1217.1,672.18576 672.18576,1217.1 0,1217.1 -672.18576,1217.1 -1217.1,672.18576 -1217.1,0 c 0,-672.18576 544.91424,-1217.1 1217.1,-1217.1 672.18576,0 1217.1,544.91424 1217.1,1217.1 z"
       style="fill:none;stroke:#cdcdcd;stroke-width:140.16200256;stroke-linecap:round;stroke-linejoin:round;stroke-miterlimit:4;stroke-opacity:1;stroke-dasharray:none"
       sodipodi:cx="0"
       sodipodi:cy="0"
       sodipodi:rx="1217.1"
       sodipodi:ry="1217.1" />
  </g>
  <g
     id="g3801"
     style="fill:none;stroke:#999999;stroke-opacity:1"
     transform="matrix(0.5,0,0,0.5,5920.6363,-203.9599)">
    <polyline
       transform="translate(7008.1,7344.4888)"
       points="     0.00  -6371.00     0.00  -6370.99     0.45  -6369.74     0.90  -6368.50     1.81  -6366.00     3.61  -6361.00     5.42  -6356.00     7.23  -6351.00     7.61  -6350.06     8.00  -6349.12     8.77  -6347.24    10.32  -6343.49    13.41  -6335.99    14.12  -6334.66    14.83  -6333.33    16.25  -6330.67    19.10  -6325.35    21.95  -6320.03    24.80  -6314.71    30.50  -6304.06    36.21  -6293.40    38.10  -6289.86    43.33  -6280.09    48.57  -6270.31    59.06  -6250.72    60.04  -6248.91    61.01  -6247.09    62.97  -6243.45    66.90  -6236.14    74.50  -6222.10    82.22  -6207.92    82.90  -6206.68    83.58  -6205.44    90.64  -6192.56    97.81  -6179.57   108.66  -6160.04   110.73  -6156.35   112.81  -6152.64   119.44  -6140.85   126.20  -6128.93   137.34  -6109.46   138.62  -6107.23   139.90  -6105.00   146.85  -6093.00   150.37  -6086.96   153.92  -6080.88   160.40  -6069.84   166.98  -6058.70   167.63  -6057.60   168.29  -6056.51   175.59  -6044.26   179.29  -6038.08   183.02  -6031.87   190.28  -6019.88   197.66  -6007.75   197.90  -6007.36   198.14  -6006.97   205.83  -5994.43   209.74  -5988.11   213.67  -5981.75   221.47  -5969.24   229.42  -5956.58   231.90  -5952.87   234.38  -5949.15   239.39  -5941.67   249.03  -5927.39   258.85  -5912.93   264.21  -5905.09   278.95  -5883.72   299.70  -5854.03   300.21  -5853.31   321.17  -5823.83   337.50  -5801.19   343.40  -5793.09   366.45  -5761.76   376.18  -5748.71   390.38  -5729.82   415.24  -5697.23   416.34  -5695.80   418.27  -5693.55   420.21  -5691.30   424.10  -5686.78   431.95  -5677.71   447.37  -5659.97   463.12  -5642.02   466.04  -5638.71   468.97  -5635.38   488.09  -5613.86   507.69  -5592.02   511.65  -5587.62   533.97  -5563.03   556.75  -5538.12   559.06  -5535.61   561.37  -5533.10   582.58  -5510.13   604.20  -5486.88   612.65  -5477.85   654.17  -5433.81   665.60  -5421.80   706.82  -5378.84   707.67  -5377.96   708.51  -5377.09   710.19  -5375.35   713.57  -5371.86   716.96  -5368.36   720.36  -5364.85   727.30  -5357.71   734.28  -5350.54   741.31  -5343.34   748.38  -5336.11   762.66  -5321.57   777.11  -5306.90   791.56  -5292.32   806.19  -5277.61   821.02  -5262.78   836.04  -5247.82   866.30  -5217.91   897.39  -5187.45   928.95  -5156.83   961.43  -5125.61   994.47  -5094.17  1028.53  -5062.07  1066.96  -5026.23  1070.50  -5022.94  1074.05  -5019.65  1081.20  -5013.05  1095.62  -4999.75  1099.12  -4996.54  1125.30  -4972.56  1155.87  -4944.80  1173.76  -4928.66  1187.45  -4916.37  1251.93  -4859.09  1253.21  -4857.96  1286.01  -4829.22  1321.32  -4798.56  1338.47  -4783.78  1394.22  -4736.19  1430.98  -4705.21  1433.00  -4703.51  1473.79  -4669.50  1532.87  -4620.89  1559.17  -4599.48  1605.58  -4562.08  1647.62  -4528.59  1654.93  -4522.80  1708.94  -4481.31  1762.13  -4439.19  1781.60  -4424.25  1823.02  -4392.73  1890.68  -4341.94  1949.18  -4298.73  2002.01  -4261.08  2054.17  -4222.79  2111.04  -4183.41  2167.19  -4143.28  2204.79  -4117.34  2255.53  -4084.10  2305.78  -4050.25  2355.54  -4015.77  2403.84  -3985.26  2451.76  -3954.17  2499.27  -3922.50  2548.04  -3892.82  2596.47  -3862.53  2644.53  -3831.64  2696.80  -3801.11  2748.72  -3769.86  2800.28  -3737.91  2839.68  -3714.80  2899.78  -3680.86  2959.49  -3645.95  3016.24  -3614.85  3072.69  -3582.88  3136.56  -3548.11  3211.18  -3508.24  3257.26  -3484.02  3279.02  -3472.69  3339.67  -3442.27  3400.09  -3410.85  3408.42  -3406.67  3456.55  -3382.72  3510.05  -3356.46  3540.57  -3341.66  3609.58  -3308.66  3657.65  -3286.05  3660.04  -3284.94  3703.65  -3264.71  3770.34  -3234.29  3790.99  -3224.99  3833.69  -3205.93  3873.59  -3188.35  3875.16  -3187.66  3954.32  -3153.42  3971.24  -3146.21  3993.43  -3136.81  4031.51  -3120.84  4064.30  -3107.23  4068.69  -3105.43  4086.84  -3097.97  4095.84  -3094.28  4100.32  -3092.45  4104.79  -3090.63  4153.52  -3070.94  4197.00  -3053.63  4239.46  -3036.98  4281.48  -3020.72  4322.57  -3005.06  4363.31  -2989.74  4403.20  -2974.96  4423.11  -2967.67  4442.82  -2960.49  4462.33  -2953.44  4481.65  -2946.51  4501.05  -2939.60  4520.26  -2932.81  4529.80  -2929.46  4539.30  -2926.13  4548.75  -2922.83  4558.15  -2919.56  4562.76  -2917.96  4567.37  -2916.37  4571.96  -2914.78  4574.25  -2913.99  4575.40  -2913.59  4576.54  -2913.20  4632.90  -2893.98  4648.62  -2888.70  4706.08  -2869.67  4717.83  -2865.83  4748.04  -2856.05  4777.81  -2846.54  4781.07  -2845.50  4784.32  -2844.47  4816.53  -2834.35  4848.24  -2824.51  4853.90  -2822.77  4881.98  -2814.24  4909.56  -2806.01  4913.82  -2804.75  4918.06  -2803.51  4940.97  -2796.82  4963.57  -2790.33  4975.11  -2787.06  4980.84  -2785.44  4983.71  -2784.63  4986.56  -2783.83  4988.32  -2783.44  5028.36  -2774.67  5051.48  -2769.78  5067.42  -2766.48  5105.56  -2758.82  5115.39  -2756.90  5142.81  -2751.66  5178.38  -2745.12  5179.25  -2744.96  5214.93  -2738.70  5240.53  -2734.37  5249.90  -2732.82  5267.15  -2730.03  5284.17  -2727.33  5293.06  -2725.95  5297.49  -2725.27  5301.90  -2724.59  5316.72  -2722.74  5331.36  -2720.96  5338.79  -2720.07  5346.17  -2719.21  5360.78  -2717.53  5361.23  -2717.48  5361.69  -2717.43  5375.80  -2715.85  5389.74  -2714.35  5396.94  -2713.59  5404.11  -2712.84  5418.29  -2711.40  5419.56  -2711.27  5420.83  -2711.15  5433.71  -2709.89  5446.45  -2708.68  5453.46  -2708.03  5460.43  -2707.39  5474.24  -2706.16  5476.80  -2705.94  5479.36  -2705.72  5501.71  -2703.85  5515.37  -2702.76  5528.87  -2701.73  5533.10  -2701.42  5537.32  -2701.11  5559.61  -2699.52  5574.42  -2698.51  5589.07  -2697.55  5590.48  -2697.46  5591.89  -2697.37  5608.01  -2696.36  5623.94  -2695.41  5632.23  -2694.93  5636.36  -2694.69  5638.41  -2694.58  5640.47  -2694.46  5662.65  -2693.23  5673.73  -2692.61  5684.80  -2692.00  5688.80  -2691.77  5700.88  -2691.10  5712.94  -2690.44  5718.97  -2690.10  5724.99  -2689.77  5731.02  -2689.44  5734.03  -2689.27  5735.53  -2689.19  5737.04  -2689.11  5745.15  -2689.48  5749.20  -2689.66  5751.23  -2689.75  5752.24  -2689.80  5753.25  -2689.84  5758.55  -2690.32  5763.85  -2690.79  5769.14  -2691.27  5771.79  -2691.51  5773.11  -2691.63  5774.43  -2691.75  5774.44  -2691.75  5774.43  -2691.74  5773.49  -2690.80  5772.55  -2689.87  5770.67  -2687.99  5766.90  -2684.24  5763.13  -2680.49  5759.36  -2676.74  5758.67  -2676.00  5757.99  -2675.25  5756.61  -2673.76  5753.87  -2670.77  5748.37  -2664.80  5747.47  -2663.59  5746.56  -2662.39  5744.75  -2659.97  5741.13  -2655.15  5737.52  -2650.32  5733.89  -2645.49  5726.65  -2635.82  5719.40  -2626.14  5716.99  -2622.93  5710.35  -2614.06  5703.69  -2605.18  5690.38  -2587.39  5689.14  -2585.75  5687.91  -2584.10  5685.44  -2580.79  5680.47  -2574.13  5670.96  -2561.32  5661.37  -2548.32  5660.53  -2547.18  5659.69  -2546.04  5651.01  -2534.20  5642.26  -2522.22  5629.14  -2504.13  5626.67  -2500.69  5624.19  -2497.25  5616.30  -2486.25  5608.35  -2475.09  5595.41  -2456.77  5593.93  -2454.67  5592.45  -2452.56  5584.52  -2441.20  5580.52  -2435.45  5576.51  -2429.66  5569.25  -2419.13  5561.93  -2408.45  5561.21  -2407.40  5560.49  -2406.34  5552.48  -2394.55  5548.44  -2388.59  5544.39  -2382.58  5536.58  -2370.94  5528.71  -2359.12  5528.46  -2358.74  5528.21  -2358.36  5520.10  -2346.08  5516.02  -2339.88  5511.92  -2333.62  5503.87  -2321.27  5495.76  -2308.72  5493.44  -2304.91  5491.12  -2301.08  5486.46  -2293.38  5477.58  -2278.61  5468.63  -2263.60  5463.79  -2255.43  5450.64  -2233.04  5432.50  -2201.69  5432.06  -2200.92  5414.20  -2169.47  5400.58  -2145.10  5395.73  -2136.33  5377.07  -2102.20  5369.35  -2087.87  5358.23  -2067.02  5339.20  -2030.72  5338.37  -2029.12  5337.15  -2026.42  5335.92  -2023.71  5333.48  -2018.27  5328.57  -2007.33  5319.01  -1985.85  5309.39  -1964.00  5307.62  -1959.95  5305.85  -1955.89  5294.41  -1929.47  5282.89  -1902.48  5280.59  -1897.03  5267.73  -1866.41  5254.78  -1835.24  5253.48  -1832.08  5252.17  -1828.92  5240.32  -1800.00  5228.38  -1770.58  5223.76  -1759.11  5201.39  -1702.87  5195.33  -1687.44  5173.81  -1631.92  5173.38  -1630.79  5172.94  -1629.66  5172.07  -1627.39  5170.34  -1622.85  5168.60  -1618.30  5166.86  -1613.74  5163.32  -1604.43  5159.77  -1595.07  5156.21  -1585.66  5152.65  -1576.20  5145.49  -1557.12  5138.31  -1537.82  5131.20  -1518.56  5124.05  -1499.09  5116.87  -1479.38  5109.66  -1459.44  5095.33  -1419.39  5080.86  -1378.34  5066.44  -1336.79  5051.87  -1294.16  5037.33  -1250.93  5022.62  -1206.50  5006.37  -1156.53  5004.90  -1151.93  5003.41  -1147.32  5000.45  -1138.06  4994.49  -1119.36  4993.05  -1114.84  4982.39  -1080.97  4970.14  -1041.54  4963.07  -1018.50  4957.71  -1000.91  4933.04   -918.27  4932.55   -916.62  4920.36   -874.75  4907.50   -829.80  4901.35   -808.01  4881.77   -737.37  4869.22   -690.97  4868.53   -688.41  4854.94   -637.07  4835.84   -562.99  4827.55   -530.10  4813.26   -472.24  4800.66   -419.98  4798.51   -410.91  4783.72   -344.43  4768.02   -278.43  4762.71   -254.47  4751.63   -203.61  4734.18   -120.82  4719.74    -49.55  4707.93     14.24  4695.27     77.70  4683.60    145.88  4670.95    213.73  4663.33    258.76  4654.64    318.80  4645.19    378.65  4634.96    438.31  4627.71    494.99  4619.78    551.55  4611.15    607.99  4604.85    664.74  4597.86    721.42  4590.17    778.04  4584.58    838.31  4578.20    898.57  4571.02    958.81  4566.72   1004.28  4561.35   1073.09  4554.94   1141.96  4550.73   1206.53  4545.60   1271.20  4541.07   1343.78  4536.46   1428.27  4533.98   1480.26  4532.90   1504.78  4530.96   1572.59  4528.01   1640.63  4527.74   1649.95  4526.36   1703.69  4525.17   1763.28  4524.64   1797.19  4523.89   1873.69  4523.71   1926.80  4523.71   1929.44  4523.81   1977.51  4524.40   2050.81  4524.70   2073.45  4525.47   2120.21  4526.39   2163.80  4526.43   2165.52  4528.85   2251.73  4529.46   2270.11  4530.32   2294.20  4531.93   2335.46  4533.45   2370.93  4533.66   2375.67  4534.57   2395.27  4535.04   2404.98  4535.27   2409.82  4535.51   2414.64  4538.25   2467.12  4540.93   2513.85  4543.77   2559.37  4546.80   2604.32  4549.96   2648.18  4553.29   2691.58  4556.75   2733.98  4558.55   2755.11  4560.37   2776.00  4562.23   2796.66  4564.11   2817.10  4566.04   2837.60  4568.00   2857.89  4568.99   2867.95  4569.99   2877.96  4570.99   2887.92  4572.00   2897.83  4572.50   2902.68  4573.00   2907.53  4573.50   2912.36  4573.75   2914.78  4573.88   2915.98  4574.00   2917.19  4580.40   2976.39  4582.25   2992.86  4589.28   3052.98  4590.77   3065.25  4594.67   3096.76  4598.62   3127.77  4599.06   3131.16  4599.50   3134.55  4603.93   3168.01  4608.42   3200.91  4609.23   3206.77  4613.36   3235.83  4617.55   3264.31  4618.21   3268.69  4618.87   3273.06  4622.50   3296.66  4626.16   3319.88  4628.07   3331.72  4629.02   3337.61  4629.50   3340.54  4629.98   3343.47  4630.37   3345.23  4639.34   3385.22  4644.68   3408.24  4648.42   3424.09  4657.59   3461.88  4660.01   3471.61  4666.84   3498.67  4675.94   3533.68  4676.17   3534.54  4685.56   3569.52  4692.46   3594.55  4695.01   3603.70  4699.77   3620.51  4704.51   3637.08  4707.02   3645.72  4708.27   3650.02  4709.52   3654.30  4714.10   3668.53  4718.67   3682.55  4721.01   3689.65  4723.34   3696.70  4727.99   3710.66  4728.14   3711.09  4728.29   3711.53  4732.82   3724.98  4737.35   3738.25  4739.70   3745.10  4742.05   3751.91  4746.74   3765.37  4747.16   3766.58  4747.58   3767.78  4751.88   3779.99  4756.17   3792.05  4758.54   3798.68  4760.91   3805.26  4765.63   3818.29  4766.51   3820.71  4767.39   3823.12  4775.14   3844.17  4779.93   3857.01  4784.70   3869.68  4786.20   3873.65  4787.70   3877.61  4795.68   3898.48  4801.02   3912.32  4806.34   3926.01  4806.85   3927.33  4807.37   3928.65  4813.26   3943.68  4819.13   3958.52  4822.20   3966.24  4823.73   3970.08  4824.49   3971.99  4825.26   3973.90  4833.51   3994.53  4837.63   4004.83  4841.75   4015.13  4843.24   4018.85  4847.74   4030.07  4852.23   4041.29  4854.47   4046.89  4856.72   4052.50  4858.96   4058.09  4860.08   4060.89  4860.64   4062.29  4861.20   4063.69  4864.96   4070.89  4866.84   4074.48  4867.78   4076.28  4868.25   4077.18  4868.72   4078.08  4871.39   4082.68  4874.06   4087.28  4876.73   4091.87  4878.06   4094.17  4878.73   4095.32  4879.40   4096.47  4879.40   4096.48 "
       id="polyline52"
       style="fill:none;stroke:#999999;stroke-width:140.16200256;stroke-linecap:round;stroke-linejoin:round;stroke-miterlimit:4;stroke-opacity:1;stroke-dasharray:none" />
    <polyline
       transform="translate(7008.1,7344.4888)"
       points="     0.00  -6371.00     0.00  -6370.99     0.58  -6369.74     1.16  -6368.50     2.33  -6366.00     4.65  -6361.00     6.97  -6355.99     9.30  -6350.99     9.80  -6350.05    10.30  -6349.12    11.31  -6347.24    13.32  -6343.49    17.34  -6335.98    18.30  -6334.65    19.26  -6333.32    21.18  -6330.65    25.03  -6325.33    28.87  -6320.00    32.72  -6314.67    40.42  -6304.00    48.14  -6293.32    50.70  -6289.77    57.78  -6279.97    64.86  -6270.16    79.07  -6250.50    80.39  -6248.68    81.71  -6246.85    84.36  -6243.20    89.70  -6235.85   100.02  -6221.75   110.53  -6207.48   111.45  -6206.23   112.38  -6204.98   122.01  -6192.03   131.81  -6178.94   146.67  -6159.25   149.51  -6155.53   152.36  -6151.79   161.48  -6139.89   170.79  -6127.85   186.19  -6108.16   187.96  -6105.91   189.74  -6103.65   199.38  -6091.51   204.28  -6085.39   209.22  -6079.23   218.26  -6068.04   227.47  -6056.73   228.38  -6055.62   229.29  -6054.50   239.53  -6042.06   244.73  -6035.78   249.99  -6029.47   260.23  -6017.26   270.68  -6004.90   271.02  -6004.50   271.35  -6004.10   282.28  -5991.32   287.83  -5984.87   293.45  -5978.37   304.60  -5965.58   315.99  -5952.62   319.63  -5948.81   323.28  -5944.98   330.66  -5937.29   344.89  -5922.58   359.47  -5907.67   367.46  -5899.57   389.53  -5877.43   420.93  -5846.57   421.71  -5845.81   453.82  -5815.00   479.13  -5791.21   488.33  -5782.68   524.68  -5749.51   540.20  -5735.62   563.06  -5715.43   603.71  -5680.35   605.53  -5678.81   609.08  -5676.31   612.65  -5673.81   619.84  -5668.79   634.42  -5658.67   663.48  -5638.73   693.70  -5618.34   699.38  -5614.54   705.10  -5610.73   742.95  -5585.84   782.86  -5560.17   791.09  -5554.95   838.25  -5525.38   888.02  -5494.74   893.16  -5491.61   898.34  -5488.47   946.73  -5459.36   998.07  -5429.07  1018.74  -5417.04  1072.87  -5386.72  1126.47  -5355.87  1158.27  -5338.29  1221.30  -5305.02  1283.68  -5271.02  1286.45  -5269.57  1289.24  -5268.11  1294.86  -5265.18  1306.25  -5259.25  1317.86  -5253.24  1329.70  -5247.14  1354.53  -5234.43  1380.50  -5221.27  1407.77  -5207.59  1436.55  -5193.31  1499.78  -5162.50  1573.72  -5127.43  1619.35  -5106.74  1664.73  -5085.65  1733.14  -5056.22  1801.05  -5025.87  1885.50  -4991.93  1969.32  -4956.57  2054.55  -4924.76  2139.27  -4891.49  2209.49  -4866.96  2279.45  -4841.42  2326.93  -4825.61  2374.31  -4809.34  2452.16  -4784.10  2519.30  -4763.12  2550.03  -4753.76  2579.25  -4744.99  2607.17  -4736.74  2633.95  -4728.94  2646.75  -4725.25  2659.32  -4721.66  2671.67  -4718.15  2677.77  -4716.43  2680.80  -4715.57  2683.81  -4714.72  2752.52  -4696.64  2821.20  -4677.58  2856.39  -4668.54  2916.55  -4654.20  2976.73  -4639.10  3000.01  -4633.66  3058.14  -4620.46  3113.31  -4608.42  3119.23  -4607.16  3125.13  -4605.91  3182.35  -4594.03  3236.95  -4583.18  3246.51  -4581.33  3293.16  -4572.60  3337.77  -4564.73  3344.55  -4563.58  3351.28  -4562.44  3387.26  -4556.53  3422.08  -4551.08  3439.63  -4548.44  3448.30  -4547.17  3452.61  -4546.54  3456.91  -4545.91  3459.29  -4545.79  3512.94  -4543.40  3543.42  -4542.39  3564.24  -4541.85  3613.44  -4541.02  3625.99  -4540.92  3660.72  -4540.84  3705.22  -4541.22  3706.30  -4541.23  3750.33  -4542.14  3781.57  -4543.09  3792.95  -4543.50  3813.78  -4544.34  3834.23  -4545.27  3844.87  -4545.80  3850.15  -4546.07  3855.41  -4546.35  3872.59  -4547.96  3889.48  -4549.61  3898.02  -4550.48  3906.49  -4551.36  3923.21  -4553.16  3923.73  -4553.22  3924.25  -4553.28  3940.33  -4555.09  3956.16  -4556.95  3964.32  -4557.93  3972.41  -4558.93  3988.39  -4560.95  3989.82  -4561.14  3991.25  -4561.32  4005.71  -4563.23  4019.96  -4565.16  4027.78  -4566.25  4035.55  -4567.34  4050.89  -4569.56  4053.73  -4569.98  4056.57  -4570.40  4081.28  -4574.15  4096.31  -4576.52  4111.12  -4578.91  4115.76  -4579.67  4120.37  -4580.44  4144.70  -4584.55  4160.80  -4587.35  4176.70  -4590.16  4178.23  -4590.44  4179.76  -4590.71  4197.20  -4593.87  4214.38  -4597.05  4223.31  -4598.73  4227.74  -4599.57  4229.96  -4599.99  4232.16  -4600.41  4255.99  -4604.96  4267.88  -4607.23  4279.75  -4609.50  4284.05  -4610.32  4296.99  -4612.80  4309.92  -4615.27  4316.38  -4616.51  4322.83  -4617.75  4329.28  -4618.98  4332.50  -4619.60  4334.11  -4619.91  4335.72  -4620.22  4343.80  -4622.92  4347.84  -4624.27  4349.86  -4624.94  4350.87  -4625.28  4351.88  -4625.62  4357.00  -4627.66  4362.13  -4629.70  4367.25  -4631.74  4369.81  -4632.76  4371.09  -4633.28  4372.37  -4633.79  4372.37  -4633.79  4372.37  -4633.78  4371.94  -4632.47  4371.50  -4631.17  4370.63  -4628.55  4368.89  -4623.32  4367.15  -4618.09  4365.40  -4612.86  4365.13  -4611.83  4364.85  -4610.80  4364.29  -4608.75  4363.18  -4604.64  4360.95  -4596.41  4360.74  -4594.79  4360.52  -4593.16  4360.09  -4589.91  4359.23  -4583.40  4358.37  -4576.88  4357.51  -4570.36  4355.79  -4557.32  4354.07  -4544.25  4353.50  -4539.92  4351.92  -4527.93  4350.34  -4515.93  4347.19  -4491.88  4346.89  -4489.65  4346.60  -4487.42  4346.02  -4482.94  4344.86  -4473.93  4342.69  -4456.59  4340.54  -4439.00  4340.36  -4437.46  4340.17  -4435.91  4338.29  -4419.88  4336.43  -4403.64  4333.73  -4379.12  4333.24  -4374.47  4332.74  -4369.79  4331.21  -4354.87  4329.72  -4339.72  4327.41  -4314.84  4327.15  -4311.98  4326.90  -4309.12  4325.58  -4293.67  4324.93  -4285.86  4324.30  -4277.99  4323.20  -4263.65  4322.14  -4249.10  4322.03  -4247.67  4321.93  -4246.23  4320.84  -4230.15  4320.32  -4222.02  4319.81  -4213.82  4318.87  -4197.91  4317.99  -4181.75  4317.97  -4181.23  4317.94  -4180.71  4317.11  -4163.91  4316.72  -4155.40  4316.35  -4146.83  4315.67  -4129.87  4315.07  -4112.62  4315.10  -4107.36  4315.13  -4102.07  4315.22  -4091.41  4315.47  -4070.95  4315.84  -4050.10  4316.09  -4038.72  4316.96  -4007.47  4318.61  -3963.47  4318.66  -3962.39  4320.86  -3917.94  4322.95  -3883.27  4323.79  -3870.75  4327.46  -3821.68  4329.21  -3800.93  4331.99  -3770.56  4337.48  -3717.14  4337.75  -3714.77  4338.62  -3710.51  4339.50  -3706.25  4341.28  -3697.66  4344.93  -3680.30  4352.38  -3645.85  4360.37  -3610.28  4361.90  -3603.62  4363.44  -3596.92  4373.89  -3552.84  4385.30  -3506.78  4387.71  -3497.34  4401.71  -3443.46  4416.88  -3387.02  4418.48  -3381.21  4420.08  -3375.38  4435.30  -3320.99  4451.85  -3263.73  4458.63  -3240.80  4477.19  -3181.60  4495.00  -3122.37  4506.07  -3087.76  4529.08  -3020.31  4551.11  -2952.77  4552.14  -2949.80  4553.16  -2946.83  4555.24  -2940.84  4559.46  -2928.72  4563.78  -2916.38  4568.20  -2903.81  4577.54  -2877.53  4587.39  -2850.13  4597.84  -2821.47  4608.97  -2791.33  4633.81  -2725.53  4663.53  -2649.28  4682.52  -2602.91  4701.05  -2556.43  4730.61  -2488.07  4759.17  -2419.39  4797.30  -2336.75  4834.00  -2253.51  4874.16  -2171.88  4912.94  -2089.54  4947.18  -2023.50  4980.53  -1956.92  5004.22  -1912.83  5027.52  -1868.48  5066.82  -1796.70  5101.24  -1735.36  5117.17  -1707.46  5132.41  -1681.03  5147.05  -1655.87  5161.18  -1631.82  5167.96  -1620.35  5174.63  -1609.10  5181.21  -1598.08  5184.46  -1592.64  5186.08  -1589.94  5187.69  -1587.25  5225.25  -1526.95  5262.12  -1465.96  5281.51  -1435.23  5315.42  -1383.51  5348.83  -1331.23  5362.04  -1311.29  5395.25  -1261.80  5427.12  -1215.18  5430.56  -1210.19  5433.99  -1205.24  5467.45  -1157.33  5499.71  -1111.97  5505.40  -1104.05  5533.35  -1065.70  5560.39  -1029.35  5564.52  -1023.86  5568.64  -1018.41  5590.75   -989.43  5612.34   -961.57  5623.29   -947.61  5628.72   -940.72  5631.43   -937.31  5634.12   -933.90  5635.77   -932.18  5673.15   -893.62  5694.63   -871.97  5709.40   -857.29  5744.62   -822.92  5753.67   -814.23  5778.88   -790.34  5811.51   -760.08  5812.31   -759.34  5844.94   -729.79  5868.32   -709.03  5876.88   -701.53  5892.61   -687.84  5908.12   -674.48  5916.22   -667.57  5920.25   -664.14  5924.27   -660.74  5937.86   -650.11  5951.29   -639.72  5958.09   -634.49  5964.86   -629.32  5978.26   -619.16  5978.67   -618.84  5979.09   -618.53  5992.03   -608.81  6004.82   -599.30  6011.43   -594.42  6017.99   -589.59  6031.01   -580.09  6032.17   -579.24  6033.34   -578.40  6045.16   -569.86  6056.86   -561.49  6063.29   -556.91  6069.69   -552.38  6082.37   -543.46  6084.73   -541.81  6087.08   -540.17  6107.62   -525.94  6120.18   -517.34  6132.60   -508.92  6136.49   -506.30  6140.38   -503.68  6160.89   -489.98  6174.52   -480.96  6188.02   -472.10  6189.32   -471.25  6190.62   -470.40  6205.47   -460.73  6220.15   -451.25  6227.79   -446.35  6231.60   -443.91  6233.50   -442.70  6235.39   -441.49  6255.84   -428.45  6266.05   -421.94  6276.24   -415.44  6279.93   -413.09  6291.04   -406.01  6302.14   -398.94  6307.69   -395.40  6313.23   -391.87  6318.77   -388.35  6321.54   -386.59  6322.92   -385.70  6324.30   -384.82  6332.03   -381.24  6335.90   -379.45  6337.83   -378.55  6338.80   -378.11  6339.76   -377.66  6344.89   -375.63  6350.02   -373.60  6355.14   -371.57  6357.71   -370.56  6358.99   -370.05  6360.27   -369.54  6360.27   -369.54  6360.27   -369.54  6359.05   -368.89  6357.84   -368.23  6355.41   -366.93  6350.56   -364.32  6345.70   -361.71  6340.84   -359.10  6339.93   -358.54  6339.02   -357.99  6337.21   -356.87  6333.58   -354.65  6326.31   -350.19  6325.04   -349.16  6323.77   -348.12  6321.23   -346.05  6316.13   -341.91  6311.04   -337.76  6305.94   -333.61  6295.73   -325.30  6285.51   -316.98  6282.12   -314.22  6272.75   -306.58  6263.36   -298.94  6244.56   -283.61  6242.82   -282.19  6241.08   -280.77  6237.58   -277.91  6230.56   -272.15  6217.07   -261.03  6203.44   -249.71  6202.25   -248.72  6201.05   -247.72  6188.68   -237.36  6176.18   -226.82  6157.39   -210.83  6153.84   -207.79  6150.27   -204.73  6138.92   -194.93  6127.44   -184.93  6108.68   -168.42  6106.53   -166.52  6104.38   -164.61  6092.82   -154.28  6086.99   -149.04  6081.13   -143.75  6070.48   -134.08  6059.73   -124.23  6058.67   -123.25  6057.61   -122.28  6045.78   -111.33  6039.82   -105.78  6033.82   -100.16  6022.22    -89.23  6010.49    -78.08  6010.11    -77.72  6009.74    -77.36  5997.60    -65.71  5991.48    -59.79  5985.33    -53.81  5973.20    -41.94  5960.93    -29.81  5957.33    -25.96  5953.72    -22.09  5946.48    -14.28  5932.61      0.78  5918.58     16.19  5910.95     24.64  5890.13     47.96  5861.14     81.10  5860.43     81.92  5831.53    115.76  5809.25    142.41  5801.26    152.09  5770.26    190.30  5757.29    206.60  5738.47    230.59  5705.81    273.21  5704.37    275.12  5702.09    278.81  5699.80    282.52  5695.20    289.99  5685.94    305.12  5667.72    335.30  5649.11    366.65  5645.66    372.54  5642.19    378.47  5619.53    417.70  5596.22    459.03  5591.49    467.55  5564.70    516.35  5537.00    567.81  5534.17    573.13  5531.33    578.48  5505.08    628.48  5477.82    681.48  5467.01    702.81  5439.88    758.61  5412.19    813.91  5396.48    846.68  5366.93    911.53  5336.60    975.78  5335.31    978.63  5334.02    981.50  5331.42    987.28  5326.17    998.99  5320.84   1010.93  5315.43   1023.11  5304.19   1048.64  5292.55   1075.32  5280.48   1103.34  5267.89   1132.90  5240.80   1197.81  5210.08   1273.66  5192.07   1320.42  5173.65   1366.95  5148.24   1436.94  5121.87   1506.50  5092.89   1592.78  5062.45   1678.51  5035.64   1765.44  5007.34   1851.94  4986.92   1923.47  4965.48   1994.79  4952.46   2043.11  4938.96   2091.36  4918.28   2170.54  4901.23   2238.78  4893.66   2270.00  4886.61   2299.68  4879.99   2328.03  4873.76   2355.22  4870.82   2368.22  4867.96   2380.97  4865.17   2393.51  4863.80   2399.69  4863.13   2402.77  4862.46   2405.83  4848.39   2475.46  4833.35   2545.13  4826.36   2580.78  4815.53   2641.68  4803.95   2702.63  4799.87   2726.19  4790.07   2784.99  4781.25   2840.77  4780.33   2846.75  4779.42   2852.71  4770.88   2910.52  4763.21   2965.66  4761.92   2975.32  4755.92   3022.39  4750.65   3067.38  4749.89   3074.21  4749.14   3081.00  4745.33   3117.26  4741.91   3152.34  4740.30   3170.01  4739.52   3178.74  4739.14   3183.08  4738.77   3187.41  4738.79   3189.80  4739.51   3243.49  4740.27   3273.98  4740.94   3294.80  4742.97   3343.96  4743.59   3356.49  4745.53   3391.17  4748.49   3435.57  4748.57   3436.66  4752.02   3480.55  4754.78   3511.69  4755.85   3523.02  4757.90   3543.77  4760.02   3564.13  4761.16   3574.72  4761.74   3579.98  4762.33   3585.21  4764.92   3602.27  4767.56   3619.04  4768.92   3627.52  4770.29   3635.92  4773.06   3652.51  4773.15   3653.02  4773.23   3653.54  4775.98   3669.49  4778.75   3685.18  4780.20   3693.26  4781.67   3701.29  4784.61   3717.13  4784.88   3718.54  4785.15   3719.96  4787.89   3734.28  4790.65   3748.40  4792.19   3756.14  4793.73   3763.83  4796.83   3779.02  4797.42   3781.83  4798.00   3784.64  4803.18   3809.09  4806.41   3823.96  4809.66   3838.60  4810.69   3843.19  4811.73   3847.76  4817.24   3871.80  4820.97   3887.72  4824.70   3903.42  4825.06   3904.94  4825.42   3906.45  4829.59   3923.67  4833.76   3940.64  4835.95   3949.45  4837.05   3953.83  4837.60   3956.02  4838.15   3958.20  4844.07   3981.72  4847.03   3993.46  4849.98   4005.18  4851.05   4009.42  4854.27   4022.20  4857.49   4034.96  4859.10   4041.34  4860.71   4047.71  4862.32   4054.07  4863.12   4057.25  4863.52   4058.84  4863.93   4060.43  4867.09   4068.34  4868.67   4072.30  4869.46   4074.28  4869.86   4075.26  4870.25   4076.25  4872.59   4081.25  4874.93   4086.24  4877.26   4091.24  4878.43   4093.73  4879.01   4094.98  4879.60   4096.23  4879.60   4096.24 "
       id="polyline54"
       style="fill:none;stroke:#999999;stroke-width:140.16200256;stroke-linecap:round;stroke-linejoin:round;stroke-miterlimit:4;stroke-opacity:1;stroke-dasharray:none" />
    <polyline
       transform="translate(7008.1,7344.4888)"
       points="     0.00  -6371.00    -0.00  -6370.99    -0.39  -6369.74    -0.77  -6368.50    -1.54  -6366.00    -3.09  -6361.00    -4.63  -6356.00    -6.18  -6351.00    -6.50  -6350.06    -6.83  -6349.12    -7.49  -6347.25    -8.80  -6343.49   -11.43  -6335.99   -12.03  -6334.66   -12.63  -6333.33   -13.82  -6330.68   -16.21  -6325.36   -18.59  -6320.04   -20.98  -6314.72   -25.76  -6304.08   -30.55  -6293.43   -32.13  -6289.89   -36.52  -6280.13   -40.91  -6270.36   -49.70  -6250.80   -50.52  -6248.99   -51.33  -6247.18   -52.97  -6243.54   -56.27  -6236.25   -62.62  -6222.24   -69.08  -6208.08   -69.65  -6206.84   -70.22  -6205.60   -76.12  -6192.76   -82.11  -6179.80   -91.16  -6160.33   -92.89  -6156.64   -94.62  -6152.95  -100.15  -6141.19  -105.77  -6129.31  -115.04  -6109.92  -116.10  -6107.70  -117.17  -6105.48  -122.94  -6093.53  -125.86  -6087.51  -128.81  -6081.46  -134.18  -6070.48  -139.64  -6059.39  -140.18  -6058.30  -140.72  -6057.21  -146.76  -6045.02  -149.82  -6038.88  -152.91  -6032.71  -158.90  -6020.78  -165.00  -6008.74  -165.20  -6008.35  -165.39  -6007.96  -171.74  -5995.50  -174.95  -5989.23  -178.20  -5982.92  -184.61  -5970.49  -191.15  -5957.93  -193.17  -5954.25  -195.20  -5950.56  -199.28  -5943.15  -207.13  -5929.00  -215.12  -5914.69  -219.48  -5906.92  -231.44  -5885.78  -248.24  -5856.44  -248.65  -5855.72  -265.56  -5826.63  -278.69  -5804.31  -283.43  -5796.33  -301.88  -5765.50  -309.65  -5752.67  -320.97  -5734.12  -340.71  -5702.18  -341.58  -5700.78  -343.08  -5698.58  -344.58  -5696.38  -347.60  -5691.97  -353.67  -5683.12  -365.59  -5665.84  -377.71  -5648.39  -379.96  -5645.16  -382.22  -5641.93  -396.87  -5621.04  -411.83  -5599.89  -414.85  -5595.64  -431.81  -5571.89  -449.05  -5547.90  -450.79  -5545.48  -452.54  -5543.06  -468.51  -5521.00  -484.73  -5498.72  -491.04  -5490.08  -521.94  -5448.10  -530.39  -5436.69  -560.73  -5396.02  -561.35  -5395.20  -561.97  -5394.38  -563.20  -5392.73  -565.68  -5389.44  -568.15  -5386.14  -570.64  -5382.84  -575.70  -5376.11  -580.79  -5369.37  -585.90  -5362.61  -591.04  -5355.82  -601.38  -5342.20  -611.82  -5328.49  -622.21  -5314.89  -632.70  -5301.21  -643.29  -5287.45  -653.98  -5273.60  -675.38  -5246.04  -697.19  -5218.13  -719.13  -5190.25  -741.50  -5162.02  -764.02  -5133.79  -786.98  -5105.20  -812.58  -5073.56  -814.92  -5070.68  -817.26  -5067.80  -821.97  -5062.02  -831.44  -5050.41  -833.72  -5047.61  -850.76  -5026.82  -870.42  -5002.95  -881.82  -4989.17  -890.48  -4978.73  -930.59  -4930.73  -931.38  -4929.79  -951.31  -4906.14  -972.41  -4881.24  -982.52  -4869.36 -1014.74  -4831.74 -1035.41  -4807.77 -1036.54  -4806.47 -1058.90  -4780.69 -1090.22  -4744.86 -1103.74  -4729.49 -1126.92  -4703.25 -1147.16  -4680.47 -1150.60  -4676.61 -1198.37  -4623.36 -1206.49  -4614.38 -1223.13  -4596.02 -1248.50  -4568.19 -1268.53  -4546.34 -1299.82  -4512.43 -1326.49  -4483.74 -1333.69  -4476.03 -1353.93  -4454.42 -1402.47  -4403.03 -1409.65  -4395.49 -1438.80  -4364.98 -1468.84  -4333.78 -1475.57  -4326.81 -1530.40  -4270.53 -1553.90  -4246.63 -1596.48  -4203.68 -1620.88  -4179.26 -1638.77  -4161.45 -1685.94  -4115.84 -1732.16  -4069.71 -1742.57  -4059.62 -1790.38  -4014.51 -1837.27  -3968.87 -1878.51  -3930.69 -1919.10  -3892.10 -1919.31  -3891.90 -1960.00  -3854.27 -2012.19  -3808.63 -2063.44  -3762.30 -2113.73  -3715.30 -2161.81  -3672.87 -2210.10  -3633.24 -2257.69  -3592.98 -2304.59  -3552.10 -2350.77  -3510.63 -2403.94  -3470.03 -2456.42  -3428.62 -2508.19  -3386.43 -2559.23  -3343.45 -2609.55  -3299.71 -2663.71  -3260.83 -2717.29  -3221.06 -2770.28  -3180.41 -2822.66  -3138.88 -2874.42  -3096.50 -2925.43  -3061.12 -2976.01  -3024.90 -3026.15  -2987.87 -3075.85  -2950.01 -3128.22  -2913.01 -3185.54  -2874.90 -3242.43  -2835.70 -3298.87  -2795.43 -3344.86  -2764.51 -3345.10  -2764.35 -3392.01  -2733.75 -3438.67  -2702.42 -3493.88  -2667.31 -3548.79  -2631.18 -3561.01  -2623.38 -3616.55  -2589.02 -3671.81  -2553.64 -3693.26  -2540.34 -3722.64  -2522.22 -3774.25  -2490.68 -3802.92  -2473.32 -3870.33  -2432.94 -3878.65  -2427.99 -3915.94  -2405.95 -3952.35  -2384.62 -3961.34  -2379.37 -4022.53  -2343.98 -4048.22  -2329.26 -4057.38  -2324.03 -4091.45  -2304.69 -4131.66  -2282.06 -4157.53  -2267.61 -4190.46  -2249.33 -4212.16  -2237.36 -4222.77  -2231.54 -4285.59  -2197.32 -4290.15  -2194.86 -4316.98  -2180.42 -4347.85  -2163.91 -4365.93  -2154.29 -4408.01  -2132.08 -4438.24  -2116.26 -4439.77  -2115.46 -4467.86  -2100.87 -4511.89  -2078.19 -4525.78  -2071.09 -4554.87  -2056.29 -4582.48  -2042.34 -4583.57  -2041.79 -4639.53  -2013.82 -4651.68  -2007.80 -4667.72  -1999.89 -4695.48  -1986.25 -4719.63  -1974.47 -4722.88  -1972.89 -4736.36  -1966.35 -4743.07  -1963.10 -4746.42  -1961.49 -4749.76  -1959.87 -4786.44  -1942.26 -4819.55  -1926.50 -4852.21  -1911.09 -4884.84  -1895.83 -4917.03  -1880.90 -4949.21  -1866.11 -4980.96  -1851.64 -4996.90  -1844.43 -5012.73  -1837.30 -5028.46  -1830.24 -5044.09  -1823.26 -5059.83  -1816.26 -5075.48  -1809.34 -5083.26  -1805.91 -5091.02  -1802.49 -5098.75  -1799.09 -5106.46  -1795.72 -5110.25  -1794.06 -5114.03  -1792.41 -5117.81  -1790.76 -5119.69  -1789.94 -5120.63  -1789.53 -5121.58  -1789.12 -5168.14  -1768.96 -5181.19  -1763.36 -5229.17  -1742.97 -5239.03  -1738.82 -5264.44  -1728.17 -5289.59  -1717.72 -5292.34  -1716.58 -5295.10  -1715.44 -5322.42  -1704.19 -5349.44  -1693.16 -5354.27  -1691.20 -5378.30  -1681.52 -5402.01  -1672.07 -5405.67  -1670.62 -5409.32  -1669.18 -5429.11  -1661.40 -5448.67  -1653.78 -5458.68  -1649.92 -5463.66  -1648.00 -5466.15  -1647.04 -5468.63  -1646.09 -5470.19  -1645.56 -5505.83  -1633.72 -5526.49  -1626.98 -5540.76  -1622.38 -5575.02  -1611.52 -5583.87  -1608.75 -5608.62  -1601.11 -5640.82  -1591.37 -5641.61  -1591.13 -5674.03  -1581.54 -5697.37  -1574.78 -5705.93  -1572.33 -5721.69  -1567.85 -5737.28  -1563.47 -5745.43  -1561.21 -5749.49  -1560.08 -5753.53  -1558.96 -5767.26  -1555.50 -5780.83  -1552.12 -5787.72  -1550.42 -5794.57  -1548.74 -5808.14  -1545.43 -5808.57  -1545.33 -5808.99  -1545.23 -5822.12  -1542.07 -5835.11  -1538.99 -5841.83  -1537.40 -5848.51  -1535.84 -5861.76  -1532.77 -5862.94  -1532.50 -5864.13  -1532.22 -5876.18  -1529.47 -5888.10  -1526.77 -5894.67  -1525.30 -5901.20  -1523.84 -5914.15  -1520.98 -5916.56  -1520.45 -5918.97  -1519.93 -5939.97  -1515.38 -5952.83  -1512.64 -5965.54  -1509.97 -5969.54  -1509.14 -5973.52  -1508.31 -5994.55  -1503.99 -6008.55  -1501.15 -6022.40  -1498.36 -6023.74  -1498.10 -6025.08  -1497.83 -6040.34  -1494.81 -6055.44  -1491.85 -6063.30  -1490.32 -6067.21  -1489.57 -6069.16  -1489.19 -6071.11  -1488.82 -6092.17  -1484.77 -6102.69  -1482.75 -6113.20  -1480.73 -6117.00  -1480.00 -6128.47  -1477.80 -6139.93  -1475.60 -6145.66  -1474.50 -6151.38  -1473.40 -6157.11  -1472.30 -6159.97  -1471.76 -6161.40  -1471.48 -6162.83  -1471.21 -6170.74  -1470.38 -6174.69  -1469.96 -6176.67  -1469.76 -6177.65  -1469.65 -6178.64  -1469.55 -6183.86  -1469.20 -6189.08  -1468.85 -6194.30  -1468.50 -6196.91  -1468.32 -6198.22  -1468.24 -6199.52  -1468.15 -6199.53  -1468.15 -6199.53  -1468.15 -6198.40  -1467.48 -6197.27  -1466.82 -6195.02  -1465.49 -6190.51  -1462.84 -6186.00  -1460.18 -6181.49  -1457.53 -6180.65  -1456.99 -6179.82  -1456.46 -6178.14  -1455.39 -6174.79  -1453.24 -6168.10  -1448.95 -6166.94  -1448.07 -6165.79  -1447.18 -6163.48  -1445.41 -6158.85  -1441.86 -6154.23  -1438.31 -6149.60  -1434.76 -6140.35  -1427.66 -6131.08  -1420.55 -6128.01  -1418.19 -6119.52  -1411.67 -6111.03  -1405.15 -6094.02  -1392.09 -6092.45  -1390.88 -6090.87  -1389.66 -6087.71  -1387.23 -6081.37  -1382.34 -6069.20  -1372.93 -6056.92  -1363.38 -6055.84  -1362.55 -6054.77  -1361.71 -6043.63  -1353.01 -6032.40  -1344.19 -6015.53  -1330.89 -6012.35  -1328.37 -6009.15  -1325.83 -5998.99  -1317.74 -5988.72  -1309.53 -5971.98  -1296.04 -5970.07  -1294.50 -5968.16  -1292.94 -5957.86  -1284.58 -5952.68  -1280.35 -5947.47  -1276.09 -5938.02  -1268.33 -5928.49  -1260.46 -5927.55  -1259.68 -5926.61  -1258.91 -5916.15  -1250.22 -5910.88  -1245.83 -5905.58  -1241.40 -5895.36  -1232.82 -5885.04  -1224.11 -5884.71  -1223.83 -5884.37  -1223.55 -5873.72  -1214.50 -5868.35  -1209.93 -5862.96  -1205.32 -5852.35  -1196.21 -5841.63  -1186.96 -5838.52  -1184.15 -5835.39  -1181.32 -5829.12  -1175.64 -5817.16  -1164.74 -5805.07  -1153.66 -5798.52  -1147.63 -5780.70  -1131.12 -5756.02  -1108.02 -5755.42  -1107.45 -5731.01  -1084.29 -5712.32  -1066.37 -5705.64  -1059.92 -5679.90  -1034.86 -5669.20  -1024.34 -5653.76  -1009.06 -5627.22   -982.49 -5626.06   -981.32 -5624.27   -979.35 -5622.47   -977.38 -5618.88   -973.43 -5611.67   -965.48 -5597.60   -949.90 -5583.41   -934.08 -5580.79   -931.15 -5578.16   -928.21 -5561.21   -909.14 -5544.08   -889.70 -5540.64   -885.78 -5521.44   -863.81 -5502.06   -841.51 -5500.11   -839.25 -5498.16   -837.00 -5480.37   -816.37 -5462.43   -795.46 -5455.48   -787.32 -5421.75   -747.58 -5412.59   -736.72 -5380.01   -697.83 -5379.35   -697.04 -5378.69   -696.25 -5377.38   -694.67 -5374.74   -691.50 -5372.10   -688.33 -5369.46   -685.15 -5364.09   -678.68 -5358.70   -672.17 -5353.29   -665.64 -5347.88   -659.08 -5337.00   -645.88 -5326.07   -632.56 -5315.23   -619.31 -5304.34   -605.95 -5293.38   -592.47 -5282.38   -578.88 -5260.48   -551.71 -5238.35   -524.06 -5216.27   -496.28 -5193.96   -468.01 -5171.68   -439.59 -5149.15   -410.65 -5124.27   -378.46 -5122.00   -375.52 -5119.74   -372.57 -5115.19   -366.66 -5106.08   -354.77 -5103.88   -351.90 -5087.58   -330.53 -5068.88   -305.90 -5058.10   -291.63 -5049.94   -280.80 -5012.47   -230.71 -5011.74   -229.72 -4993.31   -204.87 -4973.95   -178.60 -4964.72   -166.03 -4935.54   -126.01 -4916.98   -100.37 -4915.97    -98.97 -4896.04    -71.27 -4868.39    -32.54 -4856.54    -15.84 -4836.35     12.76 -4818.85     37.70 -4815.89     41.94 -4775.08    100.70 -4768.22    110.67 -4754.18    131.10 -4732.95    162.20 -4716.31    186.72 -4690.52    224.98 -4668.74    257.54 -4662.90    266.32 -4646.54    291.00 -4607.72    350.08 -4602.03    358.80 -4579.07    394.20 -4555.62    430.62 -4550.39    438.77 -4508.26    505.10 -4490.42    533.47 -4458.44    584.81 -4440.30    614.18 -4427.09    635.69 -4393.57    692.10 -4359.34    747.71 -4351.92    760.16 -4319.04    817.08 -4285.44    873.23 -4257.79    922.16 -4229.58    970.54 -4229.44    970.79 -4202.20   1019.06 -4169.82   1080.37 -4136.55   1140.91 -4102.40   1200.68 -4072.19   1257.24 -4044.75   1313.36 -4016.55   1368.95 -3987.58   1424.00 -3957.86   1478.50 -3930.60   1539.60 -3902.41   1600.21 -3873.28   1660.30 -3843.22   1719.88 -3812.25   1778.92 -3786.90   1840.59 -3760.54   1901.89 -3733.20   1962.82 -3704.87   2023.36 -3675.55   2083.50 -3652.87   2141.28 -3629.29   2198.85 -3604.81   2256.18 -3579.42   2313.26 -3555.48   2372.74 -3531.61   2437.30 -3506.58   2501.69 -3480.40   2565.89 -3460.90   2617.77 -3460.80   2618.05 -3441.84   2670.74 -3422.10   2723.36 -3400.66   2785.19 -3378.15   2846.95 -3373.38   2860.64 -3352.75   2922.59 -3331.05   2984.52 -3323.05   3008.46 -3312.19   3041.22 -3293.40   3098.71 -3283.11   3130.61 -3259.34   3205.51 -3256.45   3214.75 -3243.60   3256.12 -3231.23   3296.46 -3228.20   3306.42 -3207.85   3374.12 -3199.45   3402.51 -3196.48   3412.63 -3185.51   3450.23 -3172.75   3494.58 -3164.65   3523.08 -3154.45   3559.34 -3147.81   3583.21 -3144.59   3594.87 -3125.76   3663.90 -3124.42   3668.89 -3116.55   3698.33 -3107.60   3732.17 -3102.41   3751.98 -3090.49   3798.05 -3082.06   3831.12 -3081.64   3832.79 -3073.91   3863.48 -3061.99   3911.56 -3058.28   3926.71 -3050.58   3958.42 -3043.37   3988.50 -3043.09   3989.69 -3028.77   4050.59 -3025.71   4063.80 -3021.70   4081.23 -3014.83   4111.38 -3008.93   4137.61 -3008.14   4141.13 -3004.89   4155.75 -3003.27   4163.03 -3002.47   4166.66 -3001.67   4170.29 -2992.98   4210.04 -2985.28   4245.89 -2977.81   4281.22 -2970.48   4316.49 -2963.37   4351.25 -2956.40   4385.97 -2949.64   4420.21 -2946.29   4437.38 -2943.00   4454.43 -2939.76   4471.36 -2936.56   4488.18 -2933.38   4505.11 -2930.25   4521.93 -2928.70   4530.29 -2927.17   4538.63 -2925.64   4546.94 -2924.13   4555.22 -2923.39   4559.29 -2922.66   4563.35 -2921.92   4567.40 -2921.56   4569.42 -2921.37   4570.43 -2921.19   4571.44 -2912.31   4621.40 -2909.87   4635.39 -2901.09   4686.77 -2899.32   4697.33 -2894.81   4724.51 -2890.43   4751.39 -2889.96   4754.33 -2889.48   4757.28 -2884.83   4786.46 -2880.33   4815.29 -2879.54   4820.44 -2875.65   4846.06 -2871.92   4871.30 -2871.35   4875.20 -2870.79   4879.09 -2867.78   4900.13 -2864.88   4920.92 -2863.42   4931.55 -2862.70   4936.84 -2862.34   4939.48 -2861.99   4942.12 -2861.84   4943.76 -2858.52   4981.17 -2856.73   5002.82 -2855.54   5017.77 -2852.87   5053.61 -2852.22   5062.86 -2850.48   5088.70 -2848.42   5122.29 -2848.37   5123.11 -2846.52   5156.87 -2845.31   5181.13 -2844.90   5190.02 -2844.17   5206.40 -2843.51   5222.57 -2843.18   5231.03 -2843.02   5235.24 -2842.86   5239.43 -2842.66   5253.59 -2842.49   5267.57 -2842.43   5274.66 -2842.37   5281.72 -2842.28   5295.69 -2842.28   5296.13 -2842.28   5296.56 -2842.23   5310.07 -2842.22   5323.41 -2842.23   5330.32 -2842.25   5337.18 -2842.31   5350.78 -2842.32   5352.00 -2842.33   5353.21 -2842.42   5365.57 -2842.55   5377.80 -2842.63   5384.53 -2842.72   5391.22 -2842.92   5404.48 -2842.96   5406.95 -2843.00   5409.41 -2843.42   5430.90 -2843.72   5444.04 -2844.05   5457.03 -2844.16   5461.10 -2844.27   5465.17 -2844.91   5486.63 -2845.37   5500.90 -2845.85   5515.03 -2845.90   5516.39 -2845.95   5517.75 -2846.53   5533.30 -2847.13   5548.68 -2847.45   5556.68 -2847.62   5560.66 -2847.70   5562.65 -2847.79   5564.63 -2848.70   5586.05 -2849.16   5596.75 -2849.62   5607.45 -2849.78   5611.32 -2850.28   5622.98 -2850.79   5634.64 -2851.04   5640.47 -2851.29   5646.29 -2851.54   5652.11 -2851.66   5655.02 -2851.73   5656.48 -2851.79   5657.93 -2852.80   5665.82 -2853.31   5669.76 -2853.57   5671.73 -2853.69   5672.72 -2853.82   5673.70 -2854.68   5678.87 -2855.54   5684.03 -2856.41   5689.19 -2856.84   5691.77 -2857.05   5693.06 -2857.27   5694.35 -2857.27   5694.35 -2857.27   5694.35 -2856.36   5693.40 -2855.46   5692.46 -2853.65   5690.57 -2850.02   5686.80 -2846.40   5683.02 -2842.78   5679.24 -2842.07   5678.55 -2841.35   5677.86 -2839.92   5676.48 -2837.07   5673.72 -2831.35   5668.19 -2830.22   5667.27 -2829.09   5666.35 -2826.83   5664.51 -2822.32   5660.83 -2817.80   5657.14 -2813.28   5653.46 -2804.23   5646.09 -2795.18   5638.72 -2792.17   5636.27 -2783.87   5629.51 -2775.57   5622.75 -2758.94   5609.21 -2757.40   5607.96 -2755.86   5606.70 -2752.76   5604.19 -2746.55   5599.14 -2734.58   5589.47 -2722.46   5579.72 -2721.40   5578.87 -2720.33   5578.01 -2709.30   5569.18 -2698.13   5560.28 -2681.31   5546.94 -2678.12   5544.42 -2674.91   5541.89 -2664.70   5533.87 -2654.34   5525.77 -2637.36   5512.59 -2635.41   5511.09 -2633.46   5509.58 -2622.95   5501.49 -2617.64   5497.42 -2612.29   5493.33 -2602.56   5485.93 -2592.71   5478.46 -2591.74   5477.73 -2590.77   5477.00 -2579.90   5468.82 -2574.41   5464.70 -2568.89   5460.57 -2558.18   5452.60 -2547.33   5444.56 -2546.98   5444.30 -2546.63   5444.04 -2535.37   5435.76 -2529.68   5431.59 -2523.95   5427.40 -2512.64   5419.18 -2501.17   5410.88 -2497.72   5408.50 -2494.25   5406.11 -2487.27   5401.32 -2473.91   5392.19 -2460.35   5382.98 -2452.97   5378.00 -2432.80   5364.46 -2404.63   5345.77 -2403.94   5345.32 -2375.78   5326.90 -2354.03   5312.84 -2346.22   5307.83 -2315.90   5288.55 -2303.20   5280.57 -2284.77   5269.07 -2252.80   5249.36 -2251.39   5248.50 -2249.06   5247.21 -2246.73   5245.92 -2242.06   5243.33 -2232.66   5238.15 -2214.26   5228.05 -2195.59   5217.88 -2192.14   5216.01 -2188.68   5214.13 -2166.21   5202.03 -2143.35   5189.84 -2138.74   5187.40 -2112.94   5173.77 -2086.77   5160.06 -2084.12   5158.68 -2081.48   5157.30 -2057.31   5144.74 -2032.83   5132.11 -2023.31   5127.22 -1976.86   5103.55 -1964.19   5097.14 -1918.83   5074.40 -1917.91   5073.94 -1916.99   5073.49 -1915.15   5072.57 -1911.46   5070.73 -1907.77   5068.90 -1904.07   5067.06 -1896.52   5063.32 -1888.95   5059.58 -1881.35   5055.82 -1873.72   5052.06 -1858.36   5044.52 -1842.89   5036.95 -1827.50   5029.46 -1811.99   5021.94 -1796.35   5014.39 -1780.58   5006.81 -1749.10   4991.76 -1717.09   4976.60 -1684.97   4961.52 -1652.32   4946.32 -1619.53   4931.19 -1586.19   4915.93 -1549.12   4899.14 -1545.74   4897.61 -1542.35   4896.09 -1535.55   4893.03 -1521.88   4886.90 -1518.58   4885.42 -1494.03   4874.48 -1465.75   4861.96 -1449.38   4854.76 -1436.96   4849.32 -1379.58   4824.40 -1378.46   4823.91 -1350.03   4811.71 -1320.01   4798.93 -1305.64   4792.84 -1259.97   4773.66 -1230.75   4761.51 -1229.16   4760.85 -1197.61   4747.85 -1153.55   4729.86 -1134.57   4722.18 -1102.09   4709.13 -1073.78   4697.85 -1068.97   4695.94 -1002.39   4669.77  -991.11   4665.39  -968.00   4656.44  -932.84   4642.94  -905.15   4632.40  -861.97   4616.12  -825.26   4602.44  -815.37   4598.78  -787.59   4588.54  -721.16   4564.38  -711.36   4560.86  -671.62   4546.66  -630.78   4532.24  -621.64   4529.04  -547.39   4503.32  -515.67   4492.50  -458.34   4473.21  -425.59   4462.33  -401.61   4454.43  -339.00   4434.81  -276.99   4414.32  -263.17   4409.96  -200.20   4391.09  -137.82   4371.33   -83.84   4355.70   -30.26   4339.40   -29.98   4339.32    23.27   4323.94    90.39   4306.55   156.97   4288.13   223.00   4268.68   284.99   4252.31   345.93   4238.55   406.53   4223.91   466.77   4208.41   526.65   4192.05   592.39   4179.60   657.86   4166.13   723.05   4151.64   787.95   4136.12   852.54   4119.59   918.39   4109.13   984.11   4097.61  1049.71   4085.04  1115.15   4071.42  1180.42   4056.75  1241.87   4048.00  1303.32   4038.32  1364.75   4027.70  1426.15   4016.16  1489.55   4006.57  1557.87   3998.21  1626.30   3988.70  1694.80   3978.02  1749.78   3971.00  1750.07   3970.97  1805.72   3964.66  1861.47   3957.58  1926.57   3950.96  1991.85   3943.29  2006.27   3941.80  2071.32   3936.00  2136.57   3929.16  2161.72   3926.89  2196.10   3923.87  2256.38   3918.83  2289.78   3916.17  2368.14   3910.31  2377.81   3909.62  2421.02   3906.65  2463.12   3903.90  2473.51   3903.25  2544.08   3899.06  2573.64   3897.43  2584.18   3896.86  2623.30   3894.85  2669.39   3892.66  2698.99   3891.34  2736.62   3889.78  2761.39   3888.81  2773.48   3888.36  2844.98   3885.96  2850.15   3885.80  2880.61   3884.92  2915.60   3884.01  2936.07   3883.53  2983.65   3882.54  3017.77   3881.96  3019.49   3881.93  3051.14   3881.49  3100.67   3880.97  3116.27   3880.85  3148.90   3880.67  3179.84   3880.58  3181.06   3880.58  3243.62   3880.68  3257.18   3880.75  3275.06   3880.86  3305.99   3881.13  3332.86   3881.43  3336.47   3881.48  3351.45   3881.68  3358.91   3881.78  3362.62   3881.84  3366.34   3881.90  3407.02   3882.60  3443.68   3883.37  3479.78   3884.24  3515.79   3885.23  3551.25   3886.33  3586.65   3887.54  3621.52   3888.85  3639.00   3889.55  3656.35   3890.28  3673.57   3891.03  3690.67   3891.80  3707.88   3892.60  3724.97   3893.43  3733.47   3893.85  3741.93   3894.28  3750.37   3894.71  3758.78   3895.15  3762.90   3895.37  3767.02   3895.58  3771.14   3895.80  3773.19   3895.92  3774.22   3895.97  3775.24   3896.03  3825.90   3898.90  3840.08   3899.75  3892.10   3903.04  3902.78   3903.75  3930.27   3905.63  3957.43   3907.56  3960.41   3907.78  3963.38   3907.99  3992.85   3910.20  4021.94   3912.46  4027.14   3912.87  4052.96   3914.99  4078.38   3917.18  4082.31   3917.53  4086.22   3917.87  4107.39   3919.80  4128.29   3921.76  4138.97   3922.79  4144.29   3923.31  4146.94   3923.57  4149.58   3923.84  4151.22   3924.07  4188.38   3929.46  4209.86   3932.70  4224.69   3934.99  4260.17   3940.65  4269.33   3942.15  4294.87   3946.42  4328.03   3952.15  4328.84   3952.29  4362.12   3958.27  4386.00   3962.69  4394.75   3964.33  4410.85   3967.40  4426.74   3970.48  4435.05   3972.11  4439.18   3972.92  4443.30   3973.74  4457.12   3976.80  4470.77   3979.86  4477.69   3981.43  4484.56   3983.00  4498.18   3986.14  4498.61   3986.23  4499.03   3986.33  4512.18   3989.40  4525.17   3992.47  4531.89   3994.07  4538.56   3995.67  4551.78   3998.86  4552.96   3999.15  4554.14   3999.44  4566.15   4002.38  4578.01   4005.32  4584.55   4006.94  4591.04   4008.57  4603.90   4011.82  4606.28   4012.43  4608.67   4013.04  4629.48   4018.40  4642.20   4021.72  4654.77   4025.03  4658.71   4026.08  4662.64   4027.13  4683.38   4032.69  4697.16   4036.43  4710.79   4040.16  4712.11   4040.52  4713.42   4040.88  4728.42   4045.02  4743.24   4049.15  4750.95   4051.31  4754.79   4052.39  4756.70   4052.93  4758.61   4053.47  4779.25   4059.30  4789.55   4062.21  4799.86   4065.12  4803.58   4066.17  4814.82   4069.35  4826.05   4072.52  4831.66   4074.11  4837.27   4075.69  4842.88   4077.28  4845.68   4078.07  4847.08   4078.47  4848.48   4078.86  4855.92   4081.67  4859.64   4083.07  4861.50   4083.77  4862.43   4084.12  4863.36   4084.47  4868.18   4086.50  4873.01   4088.53  4877.83   4090.56  4880.24   4091.57  4881.45   4092.08  4882.65   4092.59  4882.66   4092.59 "
       id="polyline56"
       style="fill:none;stroke:#999999;stroke-width:140.16200256;stroke-linecap:round;stroke-linejoin:round;stroke-miterlimit:4;stroke-opacity:1;stroke-dasharray:none" />
    <polyline
       transform="translate(7008.1,7344.4888)"
       points="     0.00  -6371.00     0.00  -6370.99     0.12  -6369.74     0.25  -6368.50     0.49  -6366.00     0.99  -6361.00     1.48  -6356.00     1.97  -6351.00     2.08  -6350.06     2.18  -6349.12     2.39  -6347.25     2.81  -6343.50     3.64  -6336.00     3.82  -6334.67     4.00  -6333.34     4.37  -6330.69     5.10  -6325.38     5.83  -6320.07     6.56  -6314.75     8.03  -6304.12     9.49  -6293.49     9.98  -6289.97    11.32  -6280.23    12.66  -6270.48    15.35  -6250.98    15.60  -6249.18    15.85  -6247.37    16.35  -6243.75    17.36  -6236.48    19.29  -6222.52    21.26  -6208.43    21.43  -6207.20    21.61  -6205.96    23.40  -6193.18    25.22  -6180.29    27.96  -6160.94    28.49  -6157.28    29.01  -6153.61    30.68  -6141.93    32.38  -6130.14    35.17  -6110.90    35.49  -6108.70    35.81  -6106.50    37.54  -6094.66    38.42  -6088.69    39.30  -6082.70    40.91  -6071.83    42.54  -6060.85    42.70  -6059.77    42.86  -6058.69    44.67  -6046.64    45.58  -6040.57    46.50  -6034.47    48.28  -6022.69    50.09  -6010.79    50.14  -6010.41    50.20  -6010.02    52.08  -5997.74    53.03  -5991.55    53.99  -5985.33    55.88  -5973.08    57.80  -5960.72    58.39  -5957.10    58.98  -5953.47    60.16  -5946.19    62.43  -5932.29    64.74  -5918.24    66.00  -5910.63    69.43  -5889.92    74.23  -5861.23    74.35  -5860.53    79.16  -5832.14    82.87  -5810.41    84.21  -5802.65    89.39  -5772.71    91.56  -5760.27    94.71  -5742.32   100.18  -5711.47   100.42  -5710.12   100.82  -5708.01   101.22  -5705.90   102.03  -5701.66   103.65  -5693.18   106.81  -5676.62   110.02  -5659.93   110.62  -5656.85   111.21  -5653.77   115.06  -5633.86   118.98  -5613.75   119.77  -5609.72   124.17  -5587.22   128.63  -5564.55   129.08  -5562.27   129.53  -5559.99   133.63  -5539.23   137.77  -5518.33   139.38  -5510.24   147.21  -5471.06   149.33  -5460.46   156.92  -5422.81   157.07  -5422.05   157.22  -5421.29   157.53  -5419.77   158.14  -5416.74   158.76  -5413.70   159.37  -5410.65   160.63  -5404.46   161.89  -5398.26   163.15  -5392.05   164.41  -5385.83   166.95  -5373.35   169.51  -5360.82   172.04  -5348.42   174.59  -5335.98   177.16  -5323.49   179.73  -5310.96   184.86  -5286.10   190.05  -5261.07   195.22  -5236.19   200.45  -5211.15   205.67  -5186.25   210.94  -5161.19   216.76  -5133.65   217.29  -5131.15   217.82  -5128.65   218.89  -5123.64   221.01  -5113.61   221.53  -5111.20   225.33  -5093.32   229.69  -5072.90   232.20  -5061.18   234.09  -5052.32   242.79  -5011.90   242.96  -5011.11   247.21  -4991.40   251.68  -4970.79   253.80  -4961.01   260.50  -4930.27   264.74  -4910.87   264.97  -4909.82   269.50  -4889.14   275.76  -4860.68   278.43  -4848.58   282.96  -4828.09   286.87  -4810.45   287.53  -4807.48   296.56  -4766.93   298.07  -4760.18   301.14  -4746.45   305.76  -4725.84   309.35  -4709.85   314.88  -4685.34   319.50  -4664.91   320.73  -4659.47   324.16  -4644.34   332.20  -4609.04   333.36  -4603.95   338.02  -4583.55   342.72  -4563.07   343.75  -4558.56   351.99  -4522.79   355.40  -4508.01   361.41  -4482.08   364.75  -4467.71   367.14  -4457.41   378.98  -4406.73   380.23  -4401.41   390.91  -4355.99   399.16  -4321.11   399.18  -4321.03   402.94  -4305.18   415.06  -4254.30   418.18  -4241.29   427.29  -4203.34   435.22  -4170.47   437.29  -4161.90   439.62  -4152.29   452.05  -4101.16   456.48  -4083.03   464.59  -4049.94   472.87  -4016.31   475.75  -4004.65   477.25  -3998.62   490.01  -3947.20   495.10  -3926.80   502.89  -3895.67   512.17  -3858.80   514.52  -3849.50   515.90  -3844.04   529.03  -3792.28   534.01  -3772.75   542.29  -3740.39   553.25  -3697.81   553.59  -3696.48   555.68  -3688.38   569.22  -3636.22   573.25  -3620.75   582.90  -3583.91   586.05  -3571.92   589.20  -3559.93   595.51  -3535.90   596.73  -3531.27   599.42  -3521.05   610.63  -3478.48   620.03  -3442.79   624.59  -3425.52   624.70  -3423.92   624.81  -3422.32   625.04  -3419.11   625.50  -3412.67   626.43  -3399.74   627.37  -3386.74   628.32  -3373.66   630.24  -3347.83   631.22  -3334.81   632.21  -3321.71   634.21  -3295.84   635.23  -3282.80   636.26  -3269.68   638.33  -3243.76   639.38  -3230.69   640.46  -3217.56   642.60  -3191.58   643.70  -3178.49   644.81  -3165.33   647.03  -3139.31   648.17  -3126.19   649.32  -3113.01   651.62  -3086.93   652.79  -3073.79   653.98  -3060.59   656.36  -3034.45   658.80  -3008.05   659.67  -2998.67   660.31  -2991.93   663.44  -2958.86   663.77  -2955.40   666.66  -2925.53   668.91  -2902.61   668.91  -2902.56   669.95  -2892.05   673.33  -2858.32   674.20  -2849.69   676.79  -2824.33   679.06  -2802.36   679.65  -2796.63   680.33  -2790.15   683.96  -2755.66   685.27  -2743.41   687.69  -2720.88   690.17  -2697.96   691.04  -2690.02   691.50  -2685.88   695.41  -2650.51   696.98  -2636.46   699.42  -2614.84   702.35  -2589.18   703.09  -2582.71   703.53  -2578.87   707.75  -2542.51   709.37  -2528.76   712.08  -2505.81   715.70  -2475.54   715.81  -2474.59   716.51  -2468.78   721.06  -2431.32   722.43  -2420.19   725.73  -2393.49   726.59  -2386.52   727.47  -2379.54   729.22  -2365.53   729.56  -2362.81   730.32  -2356.80   733.50  -2331.72   736.19  -2310.60   737.52  -2300.29   737.70  -2298.90   737.88  -2297.50   738.24  -2294.71   738.60  -2291.92   738.96  -2289.12   739.68  -2283.52   740.41  -2277.91   741.87  -2266.66   743.35  -2255.38   744.84  -2244.01   746.34  -2232.60   748.50  -2216.25   750.69  -2199.82   754.42  -2171.99   758.22  -2143.92   763.90  -2102.47   765.95  -2087.64   773.88  -2030.94   782.02  -1973.78   783.18  -1965.76   790.38  -1916.12   798.97  -1857.89   804.39  -1821.61   807.80  -1799.03   816.87  -1739.48   821.79  -1709.28   826.22  -1679.14   827.81  -1668.95   835.86  -1617.91   841.11  -1586.76   845.80  -1555.68   850.01  -1530.77   853.85  -1505.91   856.08  -1492.30   861.74  -1459.89   866.73  -1427.57   872.63  -1394.37   877.79  -1361.28   883.19  -1329.25   889.32  -1293.13   895.82  -1257.87   901.40  -1222.75   906.09  -1198.31   910.33  -1173.93   914.11  -1149.63   917.02  -1133.05   922.67  -1103.00   927.60  -1073.07   933.03  -1045.97   937.85  -1018.97   942.05   -992.07   946.61   -970.22   950.75   -948.43   954.47   -926.71   957.78   -905.07   958.16   -903.00   963.19   -879.50   967.72   -856.06   971.75   -832.71   975.29   -809.44   980.24   -787.46   984.75   -765.53   988.80   -743.65   992.41   -721.85   995.57   -700.12   998.40   -693.97  1001.33   -687.63  1007.50   -674.24  1014.21   -659.71  1021.60   -643.71  1027.85   -630.62  1033.93   -617.49  1039.84   -604.29  1047.58   -588.81  1055.10   -573.23  1062.38   -557.56  1069.42   -541.79  1076.24   -525.94  1080.91   -516.03  1085.49   -506.08  1090.17   -496.17  1094.76   -486.22  1102.52   -470.81  1110.06   -455.27  1117.39   -439.62  1124.49   -423.85  1131.37   -407.97  1137.68   -394.96  1143.83   -381.85  1149.84   -368.66  1157.34   -352.70  1164.16   -338.23  1170.44   -324.89  1173.42   -318.57  1176.31   -312.45  1190.92   -296.06  1205.30   -279.27  1219.45   -262.11  1233.35   -244.56  1247.00   -226.64  1262.55   -208.97  1277.85   -190.86  1292.89   -172.32  1307.65   -153.36  1308.99   -151.74  1323.45   -135.29  1337.69   -118.47  1351.72   -101.30  1365.52    -83.76  1383.42    -63.25  1401.01    -42.20  1418.27    -20.62  1438.03      2.40  1457.41     26.05  1468.24     38.94  1484.43     57.45  1500.37     76.37  1516.07     95.68  1539.39    122.54  1562.22    150.18  1585.94    178.10  1607.00    202.82  1629.03    228.05  1650.66    253.92  1672.21    278.52  1693.39    303.69  1702.40    314.14  1718.97    333.07  1735.34    352.31  1756.13    375.88  1776.61    399.93  1810.54    438.91  1817.31    446.67  1837.55    469.45  1857.53    492.63  1897.30    537.87  1912.41    554.99  1936.71    582.47  1975.79    626.48  2009.18    663.91  2014.58    669.96  2053.13    712.94  2091.46    755.47  2101.50    766.57  2129.60    797.57  2148.65    818.52  2167.57    839.28  2178.75    851.51  2189.88    863.68  2197.66    872.17  2205.40    880.62  2213.10    889.00  2220.78    897.35  2224.60    901.52  2228.43    905.67  2230.34    907.75  2232.25    909.82  2234.15    911.89  2235.11    912.93  2236.06    913.96  2243.10    921.60  2257.54    937.24  2274.71    955.80  2278.83    960.24  2280.69    962.26  2290.30    972.61  2295.08    977.76  2299.86    982.90  2318.19   1002.60  2325.84   1010.80  2351.61   1038.37  2355.61   1042.64  2356.26   1043.34  2377.12   1065.57  2392.95   1082.40  2402.45   1092.48  2427.59   1119.09  2430.24   1121.89  2434.72   1126.62  2452.50   1145.36  2467.48   1161.13  2477.24   1171.37  2501.81   1197.10  2504.69   1200.11  2510.22   1205.88  2526.17   1222.52  2541.87   1238.86  2550.41   1247.74  2574.50   1272.69  2579.02   1277.38  2583.03   1281.52  2598.40   1297.38  2616.16   1315.67  2622.21   1321.88  2645.88   1346.15  2653.26   1353.70  2653.30   1353.74  2669.41   1370.20  2690.42   1391.61  2692.87   1394.09  2716.18   1417.75  2720.93   1422.57  2727.56   1429.27  2746.21   1448.11  2764.70   1466.74  2774.05   1476.14  2783.36   1485.49  2801.86   1504.01  2811.21   1513.37  2820.53   1522.67  2839.03   1541.10  2848.40   1550.41  2857.72   1559.67  2876.24   1578.01  2885.61   1587.28  2894.94   1596.49  2913.46   1614.74  2922.84   1623.96  2932.18   1633.13  2950.71   1651.29  2960.11   1660.47  2969.45   1669.59  2988.00   1687.66  2997.41   1696.80  3006.76   1705.89  3016.07   1714.91  3020.70   1719.40  3023.02   1721.64  3024.17   1722.75  3025.33   1723.87  3035.62   1738.46  3056.91   1768.61  3082.32   1804.56  3088.41   1813.18  3091.18   1817.10  3105.52   1837.39  3112.68   1847.51  3119.84   1857.62  3141.85   1888.70  3151.11   1901.73  3182.36   1945.63  3187.22   1952.45  3188.02   1953.57  3213.59   1989.34  3233.05   2016.48  3244.81   2032.85  3276.01   2076.18  3279.31   2080.75  3284.92   2088.53  3307.20   2119.34  3326.03   2145.32  3338.39   2162.33  3369.56   2205.17  3373.22   2210.19  3380.30   2219.89  3400.74   2247.85  3420.86   2275.34  3431.91   2290.39  3463.08   2332.79  3468.94   2340.74  3474.17   2347.85  3494.25   2375.05  3517.46   2406.43  3525.42   2417.18  3556.60   2459.18  3566.32   2472.24  3566.37   2472.31  3587.79   2501.06  3615.71   2538.44  3618.98   2542.81  3650.18   2584.45  3656.54   2592.92  3665.40   2604.71  3681.40   2625.98  3690.52   2638.10  3712.63   2667.40  3715.42   2671.10  3728.09   2687.86  3740.71   2704.54  3743.87   2708.71  3765.74   2737.56  3775.12   2749.92  3778.49   2754.36  3791.17   2771.03  3806.39   2791.02  3816.33   2804.05  3829.14   2820.84  3837.68   2832.02  3841.88   2837.51  3867.14   2870.50  3868.99   2872.92  3879.99   2887.25  3892.77   2903.90  3900.32   2913.72  3918.09   2936.81  3931.02   2953.58  3931.68   2954.43  3943.81   2970.14  3963.05   2995.04  3969.18   3002.95  3982.09   3019.62  3994.46   3035.56  3994.95   3036.19  4020.32   3068.84  4025.89   3075.98  4033.26   3085.44  4046.09   3101.91  4057.34   3116.32  4058.86   3118.26  4065.17   3126.34  4068.33   3130.37  4069.90   3132.38  4071.47   3134.40  4088.83   3156.56  4104.63   3176.71  4120.35   3196.71  4136.17   3216.82  4151.89   3236.78  4167.73   3256.84  4183.48   3276.75  4191.42   3286.78  4199.34   3296.78  4207.23   3306.73  4215.10   3316.64  4223.05   3326.65  4230.97   3336.62  4234.93   3341.59  4238.87   3346.55  4242.81   3351.50  4246.75   3356.44  4248.68   3358.87  4250.62   3361.29  4252.55   3363.72  4253.51   3364.93  4254.00   3365.53  4254.48   3366.14  4278.44   3396.15  4285.20   3404.60  4310.17   3435.77  4315.34   3442.21  4328.68   3458.82  4341.95   3475.31  4343.40   3477.12  4344.86   3478.93  4359.36   3496.92  4373.76   3514.76  4376.34   3517.96  4389.23   3533.88  4402.00   3549.63  4403.98   3552.07  4405.95   3554.50  4416.68   3567.69  4427.32   3580.76  4432.78   3587.46  4435.50   3590.79  4436.86   3592.46  4438.22   3594.12  4439.10   3595.18  4459.22   3619.20  4470.94   3633.15  4479.07   3642.81  4498.67   3666.03  4503.76   3672.04  4518.02   3688.86  4536.67   3710.79  4537.13   3711.33  4556.02   3733.45  4569.67   3749.40  4574.70   3755.26  4583.97   3766.05  4593.16   3776.73  4597.98   3782.32  4600.38   3785.10  4602.77   3787.88  4611.01   3797.30  4619.17   3806.62  4623.32   3811.35  4627.45   3816.06  4635.65   3825.40  4635.91   3825.69  4636.16   3825.98  4644.11   3835.01  4651.99   3843.95  4656.07   3848.58  4660.14   3853.18  4668.21   3862.30  4668.93   3863.12  4669.66   3863.94  4677.01   3872.24  4684.31   3880.47  4688.33   3885.00  4692.34   3889.50  4700.29   3898.44  4701.77   3900.10  4703.25   3901.76  4716.19   3916.27  4724.14   3925.15  4732.00   3933.94  4734.48   3936.70  4736.94   3939.45  4750.01   3954.00  4758.71   3963.68  4767.34   3973.27  4768.18   3974.19  4769.01   3975.12  4778.54   3985.68  4787.98   3996.14  4792.91   4001.59  4795.36   4004.30  4796.58   4005.65  4797.80   4007.00  4811.01   4021.60  4817.61   4028.89  4824.21   4036.18  4826.60   4038.82  4833.80   4046.78  4841.00   4054.73  4844.60   4058.71  4848.20   4062.68  4851.80   4066.66  4853.60   4068.65  4854.49   4069.64  4855.39   4070.63  4860.60   4076.09  4863.21   4078.82  4864.51   4080.19  4865.16   4080.87  4865.81   4081.55  4869.33   4085.14  4872.84   4088.73  4876.35   4092.32  4878.10   4094.12  4878.98   4095.02  4879.86   4095.92  4879.86   4095.92 "
       id="polyline58"
       style="fill:none;stroke:#999999;stroke-width:140.16200256;stroke-linecap:round;stroke-linejoin:round;stroke-miterlimit:4;stroke-opacity:1;stroke-dasharray:none" />
  </g>
  <text
     xml:space="preserve"
     style="font-size:672.77758789px;font-style:normal;font-variant:normal;font-weight:normal;font-stretch:normal;text-align:center;line-height:100%;letter-spacing:0px;word-spacing:0px;writing-mode:lr-tb;text-anchor:middle;fill:#0000ff;fill-opacity:1;stroke:#0000ff;stroke-width:1;stroke-opacity:1;font-family:Georgia;-inkscape-font-specification:Georgia"
     x="983.58093"
     y="3252.7776"
     id="text3830"
     sodipodi:linespacing="100%"><tspan
       sodipodi:role="line"
       id="tspan3840"
       style="font-size:1009.16644287px;font-style:normal;font-variant:normal;font-weight:normal;font-stretch:normal;text-align:start;line-height:100%;writing-mode:lr-tb;text-anchor:start;fill:#0000ff;stroke:#0000ff;stroke-width:1;stroke-opacity:1;font-family:Georgia;-inkscape-font-specification:Georgia"
       x="983.58093"
       y="3252.7776">The</tspan><tspan
       sodipodi:role="line"
       style="font-size:1766.04125977px;font-style:normal;font-variant:normal;font-weight:normal;font-stretch:normal;text-align:start;line-height:100%;writing-mode:lr-tb;text-anchor:start;fill:#0000ff;stroke:#0000ff;stroke-width:1;stroke-opacity:1;font-family:Georgia;-inkscape-font-specification:Georgia"
       x="983.58093"
       y="6705.2803"
       id="tspan3919"><tspan
         style="font-size:4036.66577148px;font-style:normal;font-variant:normal;font-weight:normal;font-stretch:normal;text-align:start;line-height:100%;writing-mode:lr-tb;text-anchor:start;fill:#0000ff;stroke:#0000ff;stroke-width:1;stroke-opacity:1;font-family:Georgia;-inkscape-font-specification:Georgia"
         id="tspan3916">TauP</tspan><tspan
         style="font-size:1009.16644287px;font-style:normal;font-variant:normal;font-weight:normal;font-stretch:normal;text-align:start;line-height:100%;writing-mode:lr-tb;text-anchor:start;fill:#0000ff;stroke:#0000ff;stroke-width:1;stroke-opacity:1;font-family:Georgia;-inkscape-font-specification:Georgia"
         id="tspan3921">Toolkit</tspan></tspan></text>
</svg>
